<?xml version="1.0" encoding="UTF-8" standalone="no"?><svg xmlns="http://www.w3.org/2000/svg" xmlns:xlink="http://www.w3.org/1999/xlink" contentScriptType="application/ecmascript" contentStyleType="text/css" height="1285px" preserveAspectRatio="none" style="width:972px;height:1285px;" version="1.1" viewBox="0 0 972 1285" width="972px" zoomAndPan="magnify"><defs><filter height="300%" id="f1tdvsvkmg9oge" width="300%" x="-1" y="-1"><feGaussianBlur result="blurOut" stdDeviation="2.0"/><feColorMatrix in="blurOut" result="blurOut2" type="matrix" values="0 0 0 0 0 0 0 0 0 0 0 0 0 0 0 0 0 0 .4 0"/><feOffset dx="4.0" dy="4.0" in="blurOut2" result="blurOut3"/><feBlend in="SourceGraphic" in2="blurOut3" mode="normal"/></filter></defs><g><rect fill="#FEFECE" filter="url(#f1tdvsvkmg9oge)" height="36.2969" rx="12.5" ry="12.5" style="stroke: #A80036; stroke-width: 1.5;" width="56" x="10" y="625.1914"/><text fill="#000000" font-family="sans-serif" font-size="14" lengthAdjust="spacingAndGlyphs" textLength="36" x="20" y="648.1865">Atals</text><rect fill="#FEFECE" filter="url(#f1tdvsvkmg9oge)" height="36.2969" rx="12.5" ry="12.5" style="stroke: #A80036; stroke-width: 1.5;" width="78" x="116" y="104.4453"/><text fill="#000000" font-family="sans-serif" font-size="14" lengthAdjust="spacingAndGlyphs" textLength="58" x="126" y="127.4404">compile</text><rect fill="#FEFECE" filter="url(#f1tdvsvkmg9oge)" height="36.2969" rx="12.5" ry="12.5" style="stroke: #A80036; stroke-width: 1.5;" width="79" x="244" y="20"/><text fill="#000000" font-family="sans-serif" font-size="14" lengthAdjust="spacingAndGlyphs" textLength="59" x="254" y="42.9951">manifist</text><rect fill="#FEFECE" filter="url(#f1tdvsvkmg9oge)" height="36.2969" rx="12.5" ry="12.5" style="stroke: #A80036; stroke-width: 1.5;" width="208" x="373" y="20"/><text fill="#000000" font-family="sans-serif" font-size="14" lengthAdjust="spacingAndGlyphs" textLength="188" x="383" y="42.9951">merge bundle component</text><path d="M323,38.1484 L333,38.1484 C348,38.1484 348,38.1484 363,38.1484 L373,38.1484 " fill="none" style="stroke: #A80036; stroke-width: 1.0;"/><path d="M194,122.5938 L204,122.5938 C219,122.5938 219,38.1484 234,38.1484 L244,38.1484 " fill="none" style="stroke: #A80036; stroke-width: 1.0;"/><rect fill="#FEFECE" filter="url(#f1tdvsvkmg9oge)" height="36.2969" rx="12.5" ry="12.5" style="stroke: #A80036; stroke-width: 1.5;" width="101" x="244" y="76.2969"/><text fill="#000000" font-family="sans-serif" font-size="14" lengthAdjust="spacingAndGlyphs" textLength="81" x="254" y="99.292">application</text><path d="M194,122.5938 L204,122.5938 C219,122.5938 219,94.4453 234,94.4453 L244,94.4453 " fill="none" style="stroke: #A80036; stroke-width: 1.0;"/><rect fill="#FEFECE" filter="url(#f1tdvsvkmg9oge)" height="36.2969" rx="12.5" ry="12.5" style="stroke: #A80036; stroke-width: 1.5;" width="153" x="244" y="132.5938"/><text fill="#000000" font-family="sans-serif" font-size="14" lengthAdjust="spacingAndGlyphs" textLength="133" x="254" y="155.5889">PREVERIFY dex ref</text><path d="M194,122.5938 L204,122.5938 C219,122.5938 219,150.7422 234,150.7422 L244,150.7422 " fill="none" style="stroke: #A80036; stroke-width: 1.0;"/><rect fill="#FEFECE" filter="url(#f1tdvsvkmg9oge)" height="36.2969" rx="12.5" ry="12.5" style="stroke: #A80036; stroke-width: 1.5;" width="97" x="244" y="188.8906"/><text fill="#000000" font-family="sans-serif" font-size="14" lengthAdjust="spacingAndGlyphs" textLength="73" x="254" y="211.8857">atlas-aapt</text><rect fill="#FEFECE" filter="url(#f1tdvsvkmg9oge)" height="36.2969" rx="12.5" ry="12.5" style="stroke: #A80036; stroke-width: 1.5;" width="55" x="391" y="188.8906"/><text fill="#000000" font-family="sans-serif" font-size="14" lengthAdjust="spacingAndGlyphs" textLength="35" x="401" y="211.8857">resId</text><path d="M341,207.0391 L351,207.0391 C366,207.0391 366,207.0391 381,207.0391 L391,207.0391 " fill="none" style="stroke: #A80036; stroke-width: 1.0;"/><path d="M194,122.5938 L204,122.5938 C219,122.5938 219,207.0391 234,207.0391 L244,207.0391 " fill="none" style="stroke: #A80036; stroke-width: 1.0;"/><path d="M66,643.3398 L76,643.3398 C91,643.3398 91,122.5938 106,122.5938 L116,122.5938 " fill="none" style="stroke: #A80036; stroke-width: 1.0;"/><rect fill="#FEFECE" filter="url(#f1tdvsvkmg9oge)" height="36.2969" rx="12.5" ry="12.5" style="stroke: #A80036; stroke-width: 1.5;" width="53" x="116" y="625.1914"/><text fill="#000000" font-family="sans-serif" font-size="14" lengthAdjust="spacingAndGlyphs" textLength="33" x="126" y="648.1865">Host</text><rect fill="#FEFECE" filter="url(#f1tdvsvkmg9oge)" height="36.2969" rx="12.5" ry="12.5" style="stroke: #A80036; stroke-width: 1.5;" width="153" x="219" y="245.1875"/><text fill="#000000" font-family="sans-serif" font-size="14" lengthAdjust="spacingAndGlyphs" textLength="133" x="229" y="268.1826">Bundle Framework</text><path d="M169,643.3398 L179,643.3398 C194,643.3398 194,263.3359 209,263.3359 L219,263.3359 " fill="none" style="stroke: #A80036; stroke-width: 1.0;"/><rect fill="#FEFECE" filter="url(#f1tdvsvkmg9oge)" height="36.2969" rx="12.5" ry="12.5" style="stroke: #A80036; stroke-width: 1.5;" width="57" x="219" y="540.7461"/><text fill="#000000" font-family="sans-serif" font-size="14" lengthAdjust="spacingAndGlyphs" textLength="37" x="229" y="563.7412">Hook</text><rect fill="#FEFECE" filter="url(#f1tdvsvkmg9oge)" height="36.2969" rx="12.5" ry="12.5" style="stroke: #A80036; stroke-width: 1.5;" width="51" x="326" y="385.9297"/><text fill="#000000" font-family="sans-serif" font-size="14" lengthAdjust="spacingAndGlyphs" textLength="31" x="336" y="408.9248">AMS</text><rect fill="#FEFECE" filter="url(#f1tdvsvkmg9oge)" height="36.2969" rx="12.5" ry="12.5" style="stroke: #A80036; stroke-width: 1.5;" width="76" x="427" y="301.4844"/><text fill="#000000" font-family="sans-serif" font-size="14" lengthAdjust="spacingAndGlyphs" textLength="56" x="437" y="324.4795">Activity</text><path d="M377,404.0781 L387,404.0781 C402,404.0781 402,319.6328 417,319.6328 L427,319.6328 " fill="none" style="stroke: #A80036; stroke-width: 1.0;"/><rect fill="#FEFECE" filter="url(#f1tdvsvkmg9oge)" height="36.2969" rx="12.5" ry="12.5" style="stroke: #A80036; stroke-width: 1.5;" width="73" x="427" y="357.7813"/><text fill="#000000" font-family="sans-serif" font-size="14" lengthAdjust="spacingAndGlyphs" textLength="53" x="437" y="380.7764">Service</text><path d="M377,404.0781 L387,404.0781 C402,404.0781 402,375.9297 417,375.9297 L427,375.9297 " fill="none" style="stroke: #A80036; stroke-width: 1.0;"/><rect fill="#FEFECE" filter="url(#f1tdvsvkmg9oge)" height="36.2969" rx="12.5" ry="12.5" style="stroke: #A80036; stroke-width: 1.5;" width="80" x="427" y="414.0781"/><text fill="#000000" font-family="sans-serif" font-size="14" lengthAdjust="spacingAndGlyphs" textLength="60" x="437" y="437.0732">Provider</text><path d="M377,404.0781 L387,404.0781 C402,404.0781 402,432.2266 417,432.2266 L427,432.2266 " fill="none" style="stroke: #A80036; stroke-width: 1.0;"/><rect fill="#FEFECE" filter="url(#f1tdvsvkmg9oge)" height="36.2969" rx="12.5" ry="12.5" style="stroke: #A80036; stroke-width: 1.5;" width="83" x="427" y="470.375"/><text fill="#000000" font-family="sans-serif" font-size="14" lengthAdjust="spacingAndGlyphs" textLength="63" x="437" y="493.3701">Receiver</text><path d="M377,404.0781 L387,404.0781 C402,404.0781 402,488.5234 417,488.5234 L427,488.5234 " fill="none" style="stroke: #A80036; stroke-width: 1.0;"/><path d="M276,558.8945 L286,558.8945 C301,558.8945 301,404.0781 316,404.0781 L326,404.0781 " fill="none" style="stroke: #A80036; stroke-width: 1.0;"/><rect fill="#FEFECE" filter="url(#f1tdvsvkmg9oge)" height="36.2969" rx="12.5" ry="12.5" style="stroke: #A80036; stroke-width: 1.5;" width="44" x="326" y="442.2266"/><text fill="#000000" font-family="sans-serif" font-size="14" lengthAdjust="spacingAndGlyphs" textLength="24" x="336" y="465.2217">mH</text><path d="M276,558.8945 L286,558.8945 C301,558.8945 301,460.375 316,460.375 L326,460.375 " fill="none" style="stroke: #A80036; stroke-width: 1.0;"/><rect fill="#FEFECE" filter="url(#f1tdvsvkmg9oge)" height="36.2969" rx="12.5" ry="12.5" style="stroke: #A80036; stroke-width: 1.5;" width="105" x="326" y="625.1914"/><text fill="#000000" font-family="sans-serif" font-size="14" lengthAdjust="spacingAndGlyphs" textLength="85" x="336" y="648.1865">ClassLoader</text><rect fill="#FEFECE" filter="url(#f1tdvsvkmg9oge)" height="36.2969" rx="12.5" ry="12.5" style="stroke: #A80036; stroke-width: 1.5;" width="154" x="481" y="526.6719"/><text fill="#000000" font-family="sans-serif" font-size="14" lengthAdjust="spacingAndGlyphs" textLength="134" x="491" y="549.667">BundleClassLoader</text><path d="M431,643.3398 L441,643.3398 C456,643.3398 456,544.8203 471,544.8203 L481,544.8203 " fill="none" style="stroke: #A80036; stroke-width: 1.0;"/><rect fill="#FEFECE" filter="url(#f1tdvsvkmg9oge)" height="36.2969" rx="12.5" ry="12.5" style="stroke: #A80036; stroke-width: 1.5;" width="171" x="481" y="582.9688"/><text fill="#000000" font-family="sans-serif" font-size="14" lengthAdjust="spacingAndGlyphs" textLength="151" x="491" y="605.9639">DelegateClassLoader</text><path d="M431,643.3398 L441,643.3398 C456,643.3398 456,601.1172 471,601.1172 L481,601.1172 " fill="none" style="stroke: #A80036; stroke-width: 1.0;"/><rect fill="#FEFECE" filter="url(#f1tdvsvkmg9oge)" height="36.2969" rx="12.5" ry="12.5" style="stroke: #A80036; stroke-width: 1.5;" width="138" x="481" y="667.4141"/><text fill="#000000" font-family="sans-serif" font-size="14" lengthAdjust="spacingAndGlyphs" textLength="118" x="491" y="690.4092">PathClassLoader</text><rect fill="#FEFECE" filter="url(#f1tdvsvkmg9oge)" height="36.2969" rx="12.5" ry="12.5" style="stroke: #A80036; stroke-width: 1.5;" width="107" x="669" y="667.4141"/><text fill="#000000" font-family="sans-serif" font-size="14" lengthAdjust="spacingAndGlyphs" textLength="87" x="679" y="690.4092">DexPathList</text><rect fill="#FEFECE" filter="url(#f1tdvsvkmg9oge)" height="36.2969" rx="12.5" ry="12.5" style="stroke: #A80036; stroke-width: 1.5;" width="109" x="826" y="639.2656"/><text fill="#000000" font-family="sans-serif" font-size="14" lengthAdjust="spacingAndGlyphs" textLength="89" x="836" y="662.2607">DexElement</text><path d="M776,685.5625 L786,685.5625 C801,685.5625 801,657.4141 816,657.4141 L826,657.4141 " fill="none" style="stroke: #A80036; stroke-width: 1.0;"/><rect fill="#FEFECE" filter="url(#f1tdvsvkmg9oge)" height="36.2969" rx="12.5" ry="12.5" style="stroke: #A80036; stroke-width: 1.5;" width="127" x="826" y="695.5625"/><text fill="#000000" font-family="sans-serif" font-size="14" lengthAdjust="spacingAndGlyphs" textLength="107" x="836" y="718.5576">NativeElement</text><path d="M776,685.5625 L786,685.5625 C801,685.5625 801,713.7109 816,713.7109 L826,713.7109 " fill="none" style="stroke: #A80036; stroke-width: 1.0;"/><path d="M619,685.5625 L629,685.5625 C644,685.5625 644,685.5625 659,685.5625 L669,685.5625 " fill="none" style="stroke: #A80036; stroke-width: 1.0;"/><path d="M431,643.3398 L441,643.3398 C456,643.3398 456,685.5625 471,685.5625 L481,685.5625 " fill="none" style="stroke: #A80036; stroke-width: 1.0;"/><rect fill="#FEFECE" filter="url(#f1tdvsvkmg9oge)" height="36.2969" rx="12.5" ry="12.5" style="stroke: #A80036; stroke-width: 1.5;" width="140" x="481" y="723.7109"/><text fill="#000000" font-family="sans-serif" font-size="14" lengthAdjust="spacingAndGlyphs" textLength="120" x="491" y="746.7061">BootClassLoader</text><path d="M431,643.3398 L441,643.3398 C456,643.3398 456,741.8594 471,741.8594 L481,741.8594 " fill="none" style="stroke: #A80036; stroke-width: 1.0;"/><path d="M276,558.8945 L286,558.8945 C301,558.8945 301,643.3398 316,643.3398 L326,643.3398 " fill="none" style="stroke: #A80036; stroke-width: 1.0;"/><rect fill="#FEFECE" filter="url(#f1tdvsvkmg9oge)" height="36.2969" rx="12.5" ry="12.5" style="stroke: #A80036; stroke-width: 1.5;" width="121" x="326" y="780.0078"/><text fill="#000000" font-family="sans-serif" font-size="14" lengthAdjust="spacingAndGlyphs" textLength="101" x="336" y="803.0029">AssetManager</text><path d="M276,558.8945 L286,558.8945 C301,558.8945 301,798.1563 316,798.1563 L326,798.1563 " fill="none" style="stroke: #A80036; stroke-width: 1.0;"/><path d="M169,643.3398 L179,643.3398 C194,643.3398 194,558.8945 209,558.8945 L219,558.8945 " fill="none" style="stroke: #A80036; stroke-width: 1.0;"/><rect fill="#FEFECE" filter="url(#f1tdvsvkmg9oge)" height="36.2969" rx="12.5" ry="12.5" style="stroke: #A80036; stroke-width: 1.5;" width="81" x="219" y="920.75"/><text fill="#000000" font-family="sans-serif" font-size="14" lengthAdjust="spacingAndGlyphs" textLength="61" x="229" y="943.7451">Runtime</text><rect fill="#FEFECE" filter="url(#f1tdvsvkmg9oge)" height="36.2969" rx="12.5" ry="12.5" style="stroke: #A80036; stroke-width: 1.5;" width="74" x="350" y="836.3047"/><text fill="#000000" font-family="sans-serif" font-size="14" lengthAdjust="spacingAndGlyphs" textLength="54" x="360" y="859.2998">Version</text><path d="M300,938.8984 L310,938.8984 C325,938.8984 325,854.4531 340,854.4531 L350,854.4531 " fill="none" style="stroke: #A80036; stroke-width: 1.0;"/><rect fill="#FEFECE" filter="url(#f1tdvsvkmg9oge)" height="36.2969" rx="12.5" ry="12.5" style="stroke: #A80036; stroke-width: 1.5;" width="117" x="350" y="892.6016"/><text fill="#000000" font-family="sans-serif" font-size="14" lengthAdjust="spacingAndGlyphs" textLength="97" x="360" y="915.5967">BundleListing</text><path d="M300,938.8984 L310,938.8984 C325,938.8984 325,910.75 340,910.75 L350,910.75 " fill="none" style="stroke: #A80036; stroke-width: 1.0;"/><rect fill="#FEFECE" filter="url(#f1tdvsvkmg9oge)" height="36.2969" rx="12.5" ry="12.5" style="stroke: #A80036; stroke-width: 1.5;" width="86" x="350" y="948.8984"/><text fill="#000000" font-family="sans-serif" font-size="14" lengthAdjust="spacingAndGlyphs" textLength="66" x="360" y="971.8936">Delegate</text><path d="M300,938.8984 L310,938.8984 C325,938.8984 325,967.0469 340,967.0469 L350,967.0469 " fill="none" style="stroke: #A80036; stroke-width: 1.0;"/><rect fill="#FEFECE" filter="url(#f1tdvsvkmg9oge)" height="36.2969" rx="12.5" ry="12.5" style="stroke: #A80036; stroke-width: 1.5;" width="103" x="350" y="1005.1953"/><text fill="#000000" font-family="sans-serif" font-size="14" lengthAdjust="spacingAndGlyphs" textLength="83" x="360" y="1028.1904">dex2oat art</text><path d="M300,938.8984 L310,938.8984 C325,938.8984 325,1023.3438 340,1023.3438 L350,1023.3438 " fill="none" style="stroke: #A80036; stroke-width: 1.0;"/><path d="M169,643.3398 L179,643.3398 C194,643.3398 194,938.8984 209,938.8984 L219,938.8984 " fill="none" style="stroke: #A80036; stroke-width: 1.0;"/><path d="M66,643.3398 L76,643.3398 C91,643.3398 91,643.3398 106,643.3398 L116,643.3398 " fill="none" style="stroke: #A80036; stroke-width: 1.0;"/><rect fill="#FEFECE" filter="url(#f1tdvsvkmg9oge)" height="36.2969" rx="12.5" ry="12.5" style="stroke: #A80036; stroke-width: 1.5;" width="69" x="116" y="1145.9375"/><text fill="#000000" font-family="sans-serif" font-size="14" lengthAdjust="spacingAndGlyphs" textLength="49" x="126" y="1168.9326">Bundle</text><rect fill="#FEFECE" filter="url(#f1tdvsvkmg9oge)" height="36.2969" rx="12.5" ry="12.5" style="stroke: #A80036; stroke-width: 1.5;" width="105" x="235" y="1061.4922"/><text fill="#000000" font-family="sans-serif" font-size="14" lengthAdjust="spacingAndGlyphs" textLength="85" x="245" y="1084.4873">ClassLoader</text><path d="M185,1164.0859 L195,1164.0859 C210,1164.0859 210,1079.6406 225,1079.6406 L235,1079.6406 " fill="none" style="stroke: #A80036; stroke-width: 1.0;"/><rect fill="#FEFECE" filter="url(#f1tdvsvkmg9oge)" height="36.2969" rx="12.5" ry="12.5" style="stroke: #A80036; stroke-width: 1.5;" width="79" x="235" y="1117.7891"/><text fill="#000000" font-family="sans-serif" font-size="14" lengthAdjust="spacingAndGlyphs" textLength="59" x="245" y="1140.7842">Context</text><path d="M185,1164.0859 L195,1164.0859 C210,1164.0859 210,1135.9375 225,1135.9375 L235,1135.9375 " fill="none" style="stroke: #A80036; stroke-width: 1.0;"/><rect fill="#FEFECE" filter="url(#f1tdvsvkmg9oge)" height="36.2969" rx="12.5" ry="12.5" style="stroke: #A80036; stroke-width: 1.5;" width="93" x="235" y="1174.0859"/><text fill="#000000" font-family="sans-serif" font-size="14" lengthAdjust="spacingAndGlyphs" textLength="73" x="245" y="1197.0811">AssetPath</text><path d="M185,1164.0859 L195,1164.0859 C210,1164.0859 210,1192.2344 225,1192.2344 L235,1192.2344 " fill="none" style="stroke: #A80036; stroke-width: 1.0;"/><rect fill="#FEFECE" filter="url(#f1tdvsvkmg9oge)" height="36.2969" rx="12.5" ry="12.5" style="stroke: #A80036; stroke-width: 1.5;" width="86" x="235" y="1230.3828"/><text fill="#000000" font-family="sans-serif" font-size="14" lengthAdjust="spacingAndGlyphs" textLength="66" x="245" y="1253.3779">LifeCycle</text><path d="M185,1164.0859 L195,1164.0859 C210,1164.0859 210,1248.5313 225,1248.5313 L235,1248.5313 " fill="none" style="stroke: #A80036; stroke-width: 1.0;"/><path d="M66,643.3398 L76,643.3398 C91,643.3398 91,1164.0859 106,1164.0859 L116,1164.0859 " fill="none" style="stroke: #A80036; stroke-width: 1.0;"/><!--MD5=[59adcf5e925e5ac0f1596a7ed9f25330]
@startmindmap

+ Atals
++ compile
+++ manifist
++++ merge bundle component
+++ application
+++ PREVERIFY dex ref
+++ atlas-aapt 
++++ resId
++ Host
+++ Bundle Framework
+++ Hook
++++ AMS
+++++ Activity
+++++ Service
+++++ Provider
+++++ Receiver
++++ mH
++++ ClassLoader
+++++ BundleClassLoader
+++++ DelegateClassLoader
+++++ PathClassLoader
++++++ DexPathList
+++++++ DexElement
+++++++ NativeElement
+++++ BootClassLoader
++++ AssetManager
+++ Runtime
++++ Version
++++ BundleListing
++++ Delegate
++++ dex2oat art
++ Bundle
+++ ClassLoader
+++ Context
+++ AssetPath
+++ LifeCycle

@endmindmap

PlantUML version 1.2020.15beta1(Unknown compile time)
(GPL source distribution)
Java Runtime: Java(TM) SE Runtime Environment
JVM: Java HotSpot(TM) 64-Bit Server VM
Default Encoding: UTF-8
Language: en
Country: US
--></g></svg>