<?xml version="1.0" encoding="UTF-8" standalone="no"?><svg xmlns="http://www.w3.org/2000/svg" xmlns:xlink="http://www.w3.org/1999/xlink" contentScriptType="application/ecmascript" contentStyleType="text/css" height="2270px" preserveAspectRatio="none" style="width:1628px;height:2270px;" version="1.1" viewBox="0 0 1628 2270" width="1628px" zoomAndPan="magnify"><defs><filter height="300%" id="f10unkb2n4g3ps" width="300%" x="-1" y="-1"><feGaussianBlur result="blurOut" stdDeviation="2.0"/><feColorMatrix in="blurOut" result="blurOut2" type="matrix" values="0 0 0 0 0 0 0 0 0 0 0 0 0 0 0 0 0 0 .4 0"/><feOffset dx="4.0" dy="4.0" in="blurOut2" result="blurOut3"/><feBlend in="SourceGraphic" in2="blurOut3" mode="normal"/></filter></defs><g><rect fill="#FEFECE" filter="url(#f10unkb2n4g3ps)" height="36.2969" rx="12.5" ry="12.5" style="stroke: #A80036; stroke-width: 1.5;" width="62" x="787" y="1117.7891"/><text fill="#000000" font-family="sans-serif" font-size="14" lengthAdjust="spacingAndGlyphs" textLength="42" x="797" y="1140.7842">WEEX</text><rect fill="#FEFECE" filter="url(#f10unkb2n4g3ps)" height="36.2969" rx="12.5" ry="12.5" style="stroke: #A80036; stroke-width: 1.5;" width="91" x="899" y="977.0469"/><text fill="#000000" font-family="sans-serif" font-size="14" lengthAdjust="spacingAndGlyphs" textLength="71" x="909" y="1000.042">weexCore</text><rect fill="#FEFECE" filter="url(#f10unkb2n4g3ps)" height="36.2969" rx="12.5" ry="12.5" style="stroke: #A80036; stroke-width: 1.5;" width="43" x="1040" y="639.2656"/><text fill="#000000" font-family="sans-serif" font-size="14" lengthAdjust="spacingAndGlyphs" textLength="23" x="1050" y="662.2607">IPC</text><rect fill="#FEFECE" filter="url(#f10unkb2n4g3ps)" height="36.2969" rx="12.5" ry="12.5" style="stroke: #A80036; stroke-width: 1.5;" width="120" x="1133" y="470.375"/><text fill="#000000" font-family="sans-serif" font-size="14" lengthAdjust="spacingAndGlyphs" textLength="100" x="1143" y="493.3701">futext机制 cas</text><path d="M1083,657.4141 L1093,657.4141 C1108,657.4141 1108,488.5234 1123,488.5234 L1133,488.5234 " fill="none" style="stroke: #A80036; stroke-width: 1.0;"/><rect fill="#FEFECE" filter="url(#f10unkb2n4g3ps)" height="36.2969" rx="12.5" ry="12.5" style="stroke: #A80036; stroke-width: 1.5;" width="126" x="1133" y="526.6719"/><text fill="#000000" font-family="sans-serif" font-size="14" lengthAdjust="spacingAndGlyphs" textLength="106" x="1143" y="549.667">mmap 共享内存</text><path d="M1083,657.4141 L1093,657.4141 C1108,657.4141 1108,544.8203 1123,544.8203 L1133,544.8203 " fill="none" style="stroke: #A80036; stroke-width: 1.0;"/><rect fill="#FEFECE" filter="url(#f10unkb2n4g3ps)" height="36.2969" rx="12.5" ry="12.5" style="stroke: #A80036; stroke-width: 1.5;" width="118" x="1133" y="582.9688"/><text fill="#000000" font-family="sans-serif" font-size="14" lengthAdjust="spacingAndGlyphs" textLength="98" x="1143" y="605.9639">进程信号量通知</text><path d="M1083,657.4141 L1093,657.4141 C1108,657.4141 1108,601.1172 1123,601.1172 L1133,601.1172 " fill="none" style="stroke: #A80036; stroke-width: 1.0;"/><rect fill="#FEFECE" filter="url(#f10unkb2n4g3ps)" height="36.2969" rx="12.5" ry="12.5" style="stroke: #A80036; stroke-width: 1.5;" width="76" x="1133" y="723.7109"/><text fill="#000000" font-family="sans-serif" font-size="14" lengthAdjust="spacingAndGlyphs" textLength="56" x="1143" y="746.7061">设计方案</text><rect fill="#FEFECE" filter="url(#f10unkb2n4g3ps)" height="36.2969" rx="12.5" ry="12.5" style="stroke: #A80036; stroke-width: 1.5;" width="76" x="1259" y="639.2656"/><text fill="#000000" font-family="sans-serif" font-size="14" lengthAdjust="spacingAndGlyphs" textLength="56" x="1269" y="662.2607">双向通信</text><path d="M1209,741.8594 L1219,741.8594 C1234,741.8594 1234,657.4141 1249,657.4141 L1259,657.4141 " fill="none" style="stroke: #A80036; stroke-width: 1.0;"/><rect fill="#FEFECE" filter="url(#f10unkb2n4g3ps)" height="36.2969" rx="12.5" ry="12.5" style="stroke: #A80036; stroke-width: 1.5;" width="223" x="1259" y="695.5625"/><text fill="#000000" font-family="sans-serif" font-size="14" lengthAdjust="spacingAndGlyphs" textLength="203" x="1269" y="718.5576">内存快控制（父偶子奇+futex）</text><path d="M1209,741.8594 L1219,741.8594 C1234,741.8594 1234,713.7109 1249,713.7109 L1259,713.7109 " fill="none" style="stroke: #A80036; stroke-width: 1.0;"/><rect fill="#FEFECE" filter="url(#f10unkb2n4g3ps)" height="36.2969" rx="12.5" ry="12.5" style="stroke: #A80036; stroke-width: 1.5;" width="76" x="1259" y="751.8594"/><text fill="#000000" font-family="sans-serif" font-size="14" lengthAdjust="spacingAndGlyphs" textLength="56" x="1269" y="774.8545">消息队列</text><path d="M1209,741.8594 L1219,741.8594 C1234,741.8594 1234,770.0078 1249,770.0078 L1259,770.0078 " fill="none" style="stroke: #A80036; stroke-width: 1.0;"/><rect fill="#FEFECE" filter="url(#f10unkb2n4g3ps)" height="36.2969" rx="12.5" ry="12.5" style="stroke: #A80036; stroke-width: 1.5;" width="95" x="1259" y="808.1563"/><text fill="#000000" font-family="sans-serif" font-size="14" lengthAdjust="spacingAndGlyphs" textLength="75" x="1269" y="831.1514">bridge设计</text><rect fill="#FEFECE" filter="url(#f10unkb2n4g3ps)" height="36.2969" rx="12.5" ry="12.5" style="stroke: #A80036; stroke-width: 1.5;" width="146" x="1404" y="808.1563"/><text fill="#000000" font-family="sans-serif" font-size="14" lengthAdjust="spacingAndGlyphs" textLength="126" x="1414" y="831.1514">单双进程解耦、切换</text><path d="M1354,826.3047 L1364,826.3047 C1379,826.3047 1379,826.3047 1394,826.3047 L1404,826.3047 " fill="none" style="stroke: #A80036; stroke-width: 1.0;"/><path d="M1209,741.8594 L1219,741.8594 C1234,741.8594 1234,826.3047 1249,826.3047 L1259,826.3047 " fill="none" style="stroke: #A80036; stroke-width: 1.0;"/><path d="M1083,657.4141 L1093,657.4141 C1108,657.4141 1108,741.8594 1123,741.8594 L1133,741.8594 " fill="none" style="stroke: #A80036; stroke-width: 1.0;"/><path d="M990,995.1953 L1000,995.1953 C1015,995.1953 1015,657.4141 1030,657.4141 L1040,657.4141 " fill="none" style="stroke: #A80036; stroke-width: 1.0;"/><rect fill="#FEFECE" filter="url(#f10unkb2n4g3ps)" height="36.2969" rx="12.5" ry="12.5" style="stroke: #A80036; stroke-width: 1.5;" width="117" x="1040" y="864.4531"/><text fill="#000000" font-family="sans-serif" font-size="14" lengthAdjust="spacingAndGlyphs" textLength="97" x="1050" y="887.4482">LayoutEngine</text><path d="M990,995.1953 L1000,995.1953 C1015,995.1953 1015,882.6016 1030,882.6016 L1040,882.6016 " fill="none" style="stroke: #A80036; stroke-width: 1.0;"/><rect fill="#FEFECE" filter="url(#f10unkb2n4g3ps)" height="36.2969" rx="12.5" ry="12.5" style="stroke: #A80036; stroke-width: 1.5;" width="95" x="1040" y="1033.3438"/><text fill="#000000" font-family="sans-serif" font-size="14" lengthAdjust="spacingAndGlyphs" textLength="75" x="1050" y="1056.3389">bridge设计</text><rect fill="#FEFECE" filter="url(#f10unkb2n4g3ps)" height="36.2969" rx="12.5" ry="12.5" style="stroke: #A80036; stroke-width: 1.5;" width="112" x="1185" y="1005.1953"/><text fill="#000000" font-family="sans-serif" font-size="14" lengthAdjust="spacingAndGlyphs" textLength="92" x="1195" y="1028.1904">platform解耦</text><rect fill="#FEFECE" filter="url(#f10unkb2n4g3ps)" height="36.2969" rx="12.5" ry="12.5" style="stroke: #A80036; stroke-width: 1.5;" width="76" x="1347" y="920.75"/><text fill="#000000" font-family="sans-serif" font-size="14" lengthAdjust="spacingAndGlyphs" textLength="56" x="1357" y="943.7451">Android</text><path d="M1297,1023.3438 L1307,1023.3438 C1322,1023.3438 1322,938.8984 1337,938.8984 L1347,938.8984 " fill="none" style="stroke: #A80036; stroke-width: 1.0;"/><rect fill="#FEFECE" filter="url(#f10unkb2n4g3ps)" height="36.2969" rx="12.5" ry="12.5" style="stroke: #A80036; stroke-width: 1.5;" width="44" x="1347" y="977.0469"/><text fill="#000000" font-family="sans-serif" font-size="14" lengthAdjust="spacingAndGlyphs" textLength="24" x="1357" y="1000.042">iOS</text><path d="M1297,1023.3438 L1307,1023.3438 C1322,1023.3438 1322,995.1953 1337,995.1953 L1347,995.1953 " fill="none" style="stroke: #A80036; stroke-width: 1.0;"/><rect fill="#FEFECE" filter="url(#f10unkb2n4g3ps)" height="36.2969" rx="12.5" ry="12.5" style="stroke: #A80036; stroke-width: 1.5;" width="109" x="1347" y="1033.3438"/><text fill="#000000" font-family="sans-serif" font-size="14" lengthAdjust="spacingAndGlyphs" textLength="89" x="1357" y="1056.3389">windows、...</text><path d="M1297,1023.3438 L1307,1023.3438 C1322,1023.3438 1322,1051.4922 1337,1051.4922 L1347,1051.4922 " fill="none" style="stroke: #A80036; stroke-width: 1.0;"/><rect fill="#FEFECE" filter="url(#f10unkb2n4g3ps)" height="36.2969" rx="12.5" ry="12.5" style="stroke: #A80036; stroke-width: 1.5;" width="104" x="1347" y="1089.6406"/><text fill="#000000" font-family="sans-serif" font-size="14" lengthAdjust="spacingAndGlyphs" textLength="84" x="1357" y="1112.6357">heron自绘制</text><path d="M1297,1023.3438 L1307,1023.3438 C1322,1023.3438 1322,1107.7891 1337,1107.7891 L1347,1107.7891 " fill="none" style="stroke: #A80036; stroke-width: 1.0;"/><path d="M1135,1051.4922 L1145,1051.4922 C1160,1051.4922 1160,1023.3438 1175,1023.3438 L1185,1023.3438 " fill="none" style="stroke: #A80036; stroke-width: 1.0;"/><rect fill="#FEFECE" filter="url(#f10unkb2n4g3ps)" height="36.2969" rx="12.5" ry="12.5" style="stroke: #A80036; stroke-width: 1.5;" width="150" x="1185" y="1145.9375"/><text fill="#000000" font-family="sans-serif" font-size="14" lengthAdjust="spacingAndGlyphs" textLength="126" x="1195" y="1168.9326">engine action解耦</text><rect fill="#FEFECE" filter="url(#f10unkb2n4g3ps)" height="36.2969" rx="12.5" ry="12.5" style="stroke: #A80036; stroke-width: 1.5;" width="224" x="1385" y="1145.9375"/><text fill="#000000" font-family="sans-serif" font-size="14" lengthAdjust="spacingAndGlyphs" textLength="204" x="1395" y="1168.9326">二进制预编译方案（ast指令集）</text><path d="M1335,1164.0859 L1345,1164.0859 C1360,1164.0859 1360,1164.0859 1375,1164.0859 L1385,1164.0859 " fill="none" style="stroke: #A80036; stroke-width: 1.0;"/><path d="M1135,1051.4922 L1145,1051.4922 C1160,1051.4922 1160,1164.0859 1175,1164.0859 L1185,1164.0859 " fill="none" style="stroke: #A80036; stroke-width: 1.0;"/><path d="M990,995.1953 L1000,995.1953 C1015,995.1953 1015,1051.4922 1030,1051.4922 L1040,1051.4922 " fill="none" style="stroke: #A80036; stroke-width: 1.0;"/><rect fill="#FEFECE" filter="url(#f10unkb2n4g3ps)" height="36.2969" rx="12.5" ry="12.5" style="stroke: #A80036; stroke-width: 1.5;" width="156" x="1040" y="1202.2344"/><text fill="#000000" font-family="sans-serif" font-size="14" lengthAdjust="spacingAndGlyphs" textLength="136" x="1050" y="1225.2295">Android/iOS merge</text><path d="M990,995.1953 L1000,995.1953 C1015,995.1953 1015,1220.3828 1030,1220.3828 L1040,1220.3828 " fill="none" style="stroke: #A80036; stroke-width: 1.0;"/><rect fill="#FEFECE" filter="url(#f10unkb2n4g3ps)" height="36.2969" rx="12.5" ry="12.5" style="stroke: #A80036; stroke-width: 1.5;" width="82" x="1040" y="1286.6797"/><text fill="#000000" font-family="sans-serif" font-size="14" lengthAdjust="spacingAndGlyphs" textLength="62" x="1050" y="1309.6748">SandBox</text><rect fill="#FEFECE" filter="url(#f10unkb2n4g3ps)" height="36.2969" rx="12.5" ry="12.5" style="stroke: #A80036; stroke-width: 1.5;" width="76" x="1172" y="1258.5313"/><text fill="#000000" font-family="sans-serif" font-size="14" lengthAdjust="spacingAndGlyphs" textLength="56" x="1182" y="1281.5264">全局污染</text><path d="M1122,1304.8281 L1132,1304.8281 C1147,1304.8281 1147,1276.6797 1162,1276.6797 L1172,1276.6797 " fill="none" style="stroke: #A80036; stroke-width: 1.0;"/><rect fill="#FEFECE" filter="url(#f10unkb2n4g3ps)" height="36.2969" rx="12.5" ry="12.5" style="stroke: #A80036; stroke-width: 1.5;" width="91" x="1172" y="1314.8281"/><text fill="#000000" font-family="sans-serif" font-size="14" lengthAdjust="spacingAndGlyphs" textLength="71" x="1182" y="1337.8232">JS vm 设计</text><path d="M1122,1304.8281 L1132,1304.8281 C1147,1304.8281 1147,1332.9766 1162,1332.9766 L1172,1332.9766 " fill="none" style="stroke: #A80036; stroke-width: 1.0;"/><path d="M990,995.1953 L1000,995.1953 C1015,995.1953 1015,1304.8281 1030,1304.8281 L1040,1304.8281 " fill="none" style="stroke: #A80036; stroke-width: 1.0;"/><rect fill="#FEFECE" filter="url(#f10unkb2n4g3ps)" height="36.2969" rx="12.5" ry="12.5" style="stroke: #A80036; stroke-width: 1.5;" width="105" x="1040" y="1427.4219"/><text fill="#000000" font-family="sans-serif" font-size="14" lengthAdjust="spacingAndGlyphs" textLength="85" x="1050" y="1450.417">MutilThread</text><rect fill="#FEFECE" filter="url(#f10unkb2n4g3ps)" height="36.2969" rx="12.5" ry="12.5" style="stroke: #A80036; stroke-width: 1.5;" width="37" x="1195" y="1371.125"/><text fill="#000000" font-family="sans-serif" font-size="14" lengthAdjust="spacingAndGlyphs" textLength="13" x="1205" y="1394.1201">UI</text><path d="M1145,1445.5703 L1155,1445.5703 C1170,1445.5703 1170,1389.2734 1185,1389.2734 L1195,1389.2734 " fill="none" style="stroke: #A80036; stroke-width: 1.0;"/><rect fill="#FEFECE" filter="url(#f10unkb2n4g3ps)" height="36.2969" rx="12.5" ry="12.5" style="stroke: #A80036; stroke-width: 1.5;" width="201" x="1195" y="1427.4219"/><text fill="#000000" font-family="sans-serif" font-size="14" lengthAdjust="spacingAndGlyphs" textLength="181" x="1205" y="1450.417">Core layout renderAction</text><path d="M1145,1445.5703 L1155,1445.5703 C1170,1445.5703 1170,1445.5703 1185,1445.5703 L1195,1445.5703 " fill="none" style="stroke: #A80036; stroke-width: 1.0;"/><rect fill="#FEFECE" filter="url(#f10unkb2n4g3ps)" height="36.2969" rx="12.5" ry="12.5" style="stroke: #A80036; stroke-width: 1.5;" width="33" x="1195" y="1483.7188"/><text fill="#000000" font-family="sans-serif" font-size="14" lengthAdjust="spacingAndGlyphs" textLength="13" x="1205" y="1506.7139">JS</text><path d="M1145,1445.5703 L1155,1445.5703 C1170,1445.5703 1170,1501.8672 1185,1501.8672 L1195,1501.8672 " fill="none" style="stroke: #A80036; stroke-width: 1.0;"/><path d="M990,995.1953 L1000,995.1953 C1015,995.1953 1015,1445.5703 1030,1445.5703 L1040,1445.5703 " fill="none" style="stroke: #A80036; stroke-width: 1.0;"/><path d="M849,1135.9375 L859,1135.9375 C874,1135.9375 874,995.1953 889,995.1953 L899,995.1953 " fill="none" style="stroke: #A80036; stroke-width: 1.0;"/><rect fill="#FEFECE" filter="url(#f10unkb2n4g3ps)" height="36.2969" rx="12.5" ry="12.5" style="stroke: #A80036; stroke-width: 1.5;" width="94" x="899" y="1652.6094"/><text fill="#000000" font-family="sans-serif" font-size="14" lengthAdjust="spacingAndGlyphs" textLength="74" x="909" y="1675.6045">JSRuntime</text><rect fill="#FEFECE" filter="url(#f10unkb2n4g3ps)" height="36.2969" rx="12.5" ry="12.5" style="stroke: #A80036; stroke-width: 1.5;" width="98" x="1043" y="1568.1641"/><text fill="#000000" font-family="sans-serif" font-size="14" lengthAdjust="spacingAndGlyphs" textLength="78" x="1053" y="1591.1592">BindingApi</text><rect fill="#FEFECE" filter="url(#f10unkb2n4g3ps)" height="36.2969" rx="12.5" ry="12.5" style="stroke: #A80036; stroke-width: 1.5;" width="43" x="1191" y="1540.0156"/><text fill="#000000" font-family="sans-serif" font-size="14" lengthAdjust="spacingAndGlyphs" textLength="23" x="1201" y="1563.0107">JSC</text><path d="M1141,1586.3125 L1151,1586.3125 C1166,1586.3125 1166,1558.1641 1181,1558.1641 L1191,1558.1641 " fill="none" style="stroke: #A80036; stroke-width: 1.0;"/><rect fill="#FEFECE" filter="url(#f10unkb2n4g3ps)" height="36.2969" rx="12.5" ry="12.5" style="stroke: #A80036; stroke-width: 1.5;" width="38" x="1191" y="1596.3125"/><text fill="#000000" font-family="sans-serif" font-size="14" lengthAdjust="spacingAndGlyphs" textLength="18" x="1201" y="1619.3076">V8</text><path d="M1141,1586.3125 L1151,1586.3125 C1166,1586.3125 1166,1614.4609 1181,1614.4609 L1191,1614.4609 " fill="none" style="stroke: #A80036; stroke-width: 1.0;"/><path d="M993,1670.7578 L1003,1670.7578 C1018,1670.7578 1018,1586.3125 1033,1586.3125 L1043,1586.3125 " fill="none" style="stroke: #A80036; stroke-width: 1.0;"/><rect fill="#FEFECE" filter="url(#f10unkb2n4g3ps)" height="36.2969" rx="12.5" ry="12.5" style="stroke: #A80036; stroke-width: 1.5;" width="140" x="1043" y="1652.6094"/><text fill="#000000" font-family="sans-serif" font-size="14" lengthAdjust="spacingAndGlyphs" textLength="120" x="1053" y="1675.6045">ContextManager</text><path d="M993,1670.7578 L1003,1670.7578 C1018,1670.7578 1018,1670.7578 1033,1670.7578 L1043,1670.7578 " fill="none" style="stroke: #A80036; stroke-width: 1.0;"/><rect fill="#FEFECE" filter="url(#f10unkb2n4g3ps)" height="36.2969" rx="12.5" ry="12.5" style="stroke: #A80036; stroke-width: 1.5;" width="78" x="1043" y="1708.9063"/><text fill="#000000" font-family="sans-serif" font-size="14" lengthAdjust="spacingAndGlyphs" textLength="58" x="1053" y="1731.9014">DomApi</text><path d="M993,1670.7578 L1003,1670.7578 C1018,1670.7578 1018,1727.0547 1033,1727.0547 L1043,1727.0547 " fill="none" style="stroke: #A80036; stroke-width: 1.0;"/><rect fill="#FEFECE" filter="url(#f10unkb2n4g3ps)" height="36.2969" rx="12.5" ry="12.5" style="stroke: #A80036; stroke-width: 1.5;" width="117" x="1043" y="1765.2031"/><text fill="#000000" font-family="sans-serif" font-size="14" lengthAdjust="spacingAndGlyphs" textLength="97" x="1053" y="1788.1982">NativeModule</text><path d="M993,1670.7578 L1003,1670.7578 C1018,1670.7578 1018,1783.3516 1033,1783.3516 L1043,1783.3516 " fill="none" style="stroke: #A80036; stroke-width: 1.0;"/><path d="M849,1135.9375 L859,1135.9375 C874,1135.9375 874,1670.7578 889,1670.7578 L899,1670.7578 " fill="none" style="stroke: #A80036; stroke-width: 1.0;"/><rect fill="#FEFECE" filter="url(#f10unkb2n4g3ps)" height="36.2969" rx="12.5" ry="12.5" style="stroke: #A80036; stroke-width: 1.5;" width="62" x="675" y="1117.7891"/><text fill="#000000" font-family="sans-serif" font-size="14" lengthAdjust="spacingAndGlyphs" textLength="42" x="685" y="1140.7842">高可用</text><rect fill="#FEFECE" filter="url(#f10unkb2n4g3ps)" height="36.2969" rx="12.5" ry="12.5" style="stroke: #A80036; stroke-width: 1.5;" width="73" x="552" y="245.1875"/><text fill="#000000" font-family="sans-serif" font-size="14" lengthAdjust="spacingAndGlyphs" textLength="53" x="562" y="268.1826">sdk指标</text><rect fill="#FEFECE" filter="url(#f10unkb2n4g3ps)" height="36.2969" rx="12.5" ry="12.5" style="stroke: #A80036; stroke-width: 1.5;" width="48" x="454" y="132.5938"/><text fill="#000000" font-family="sans-serif" font-size="14" lengthAdjust="spacingAndGlyphs" textLength="28" x="464" y="155.5889">性能</text><rect fill="#FEFECE" filter="url(#f10unkb2n4g3ps)" height="36.2969" rx="12.5" ry="12.5" style="stroke: #A80036; stroke-width: 1.5;" width="90" x="314" y="132.5938"/><text fill="#000000" font-family="sans-serif" font-size="14" lengthAdjust="spacingAndGlyphs" textLength="70" x="324" y="155.5889">可交互时间</text><rect fill="#FEFECE" filter="url(#f10unkb2n4g3ps)" height="36.2969" rx="12.5" ry="12.5" style="stroke: #A80036; stroke-width: 1.5;" width="48" x="216" y="20"/><text fill="#000000" font-family="sans-serif" font-size="14" lengthAdjust="spacingAndGlyphs" textLength="28" x="226" y="42.9951">下载</text><path d="M314,150.7422 L304,150.7422 C289,150.7422 289,38.1484 274,38.1484 L264,38.1484 " fill="none" style="stroke: #A80036; stroke-width: 1.0;"/><rect fill="#FEFECE" filter="url(#f10unkb2n4g3ps)" height="36.2969" rx="12.5" ry="12.5" style="stroke: #A80036; stroke-width: 1.5;" width="97" x="167" y="76.2969"/><text fill="#000000" font-family="sans-serif" font-size="14" lengthAdjust="spacingAndGlyphs" textLength="77" x="177" y="99.292">执行bundle</text><path d="M314,150.7422 L304,150.7422 C289,150.7422 289,94.4453 274,94.4453 L264,94.4453 " fill="none" style="stroke: #A80036; stroke-width: 1.0;"/><rect fill="#FEFECE" filter="url(#f10unkb2n4g3ps)" height="36.2969" rx="12.5" ry="12.5" style="stroke: #A80036; stroke-width: 1.5;" width="76" x="188" y="132.5938"/><text fill="#000000" font-family="sans-serif" font-size="14" lengthAdjust="spacingAndGlyphs" textLength="56" x="198" y="155.5889">数据请求</text><path d="M314,150.7422 L304,150.7422 C289,150.7422 289,150.7422 274,150.7422 L264,150.7422 " fill="none" style="stroke: #A80036; stroke-width: 1.0;"/><rect fill="#FEFECE" filter="url(#f10unkb2n4g3ps)" height="36.2969" rx="12.5" ry="12.5" style="stroke: #A80036; stroke-width: 1.5;" width="105" x="159" y="188.8906"/><text fill="#000000" font-family="sans-serif" font-size="14" lengthAdjust="spacingAndGlyphs" textLength="85" x="169" y="211.8857">domdiff耗时</text><path d="M314,150.7422 L304,150.7422 C289,150.7422 289,207.0391 274,207.0391 L264,207.0391 " fill="none" style="stroke: #A80036; stroke-width: 1.0;"/><rect fill="#FEFECE" filter="url(#f10unkb2n4g3ps)" height="36.2969" rx="12.5" ry="12.5" style="stroke: #A80036; stroke-width: 1.5;" width="80" x="184" y="245.1875"/><text fill="#000000" font-family="sans-serif" font-size="14" lengthAdjust="spacingAndGlyphs" textLength="60" x="194" y="268.1826">view耗时</text><path d="M314,150.7422 L304,150.7422 C289,150.7422 289,263.3359 274,263.3359 L264,263.3359 " fill="none" style="stroke: #A80036; stroke-width: 1.0;"/><path d="M454,150.7422 L444,150.7422 C429,150.7422 429,150.7422 414,150.7422 L404,150.7422 " fill="none" style="stroke: #A80036; stroke-width: 1.0;"/><rect fill="#FEFECE" filter="url(#f10unkb2n4g3ps)" height="36.2969" rx="12.5" ry="12.5" style="stroke: #A80036; stroke-width: 1.5;" width="76" x="328" y="188.8906"/><text fill="#000000" font-family="sans-serif" font-size="14" lengthAdjust="spacingAndGlyphs" textLength="56" x="338" y="211.8857">首屏时间</text><path d="M454,150.7422 L444,150.7422 C429,150.7422 429,207.0391 414,207.0391 L404,207.0391 " fill="none" style="stroke: #A80036; stroke-width: 1.0;"/><path d="M552,263.3359 L542,263.3359 C527,263.3359 527,150.7422 512,150.7422 L502,150.7422 " fill="none" style="stroke: #A80036; stroke-width: 1.0;"/><rect fill="#FEFECE" filter="url(#f10unkb2n4g3ps)" height="36.2969" rx="12.5" ry="12.5" style="stroke: #A80036; stroke-width: 1.5;" width="62" x="440" y="385.9297"/><text fill="#000000" font-family="sans-serif" font-size="14" lengthAdjust="spacingAndGlyphs" textLength="42" x="450" y="408.9248">稳定性</text><rect fill="#FEFECE" filter="url(#f10unkb2n4g3ps)" height="36.2969" rx="12.5" ry="12.5" style="stroke: #A80036; stroke-width: 1.5;" width="69" x="321" y="301.4844"/><text fill="#000000" font-family="sans-serif" font-size="14" lengthAdjust="spacingAndGlyphs" textLength="49" x="331" y="324.4795">JSError</text><path d="M440,404.0781 L430,404.0781 C415,404.0781 415,319.6328 400,319.6328 L390,319.6328 " fill="none" style="stroke: #A80036; stroke-width: 1.0;"/><rect fill="#FEFECE" filter="url(#f10unkb2n4g3ps)" height="36.2969" rx="12.5" ry="12.5" style="stroke: #A80036; stroke-width: 1.5;" width="48" x="342" y="357.7813"/><text fill="#000000" font-family="sans-serif" font-size="14" lengthAdjust="spacingAndGlyphs" textLength="28" x="352" y="380.7764">白屏</text><path d="M440,404.0781 L430,404.0781 C415,404.0781 415,375.9297 400,375.9297 L390,375.9297 " fill="none" style="stroke: #A80036; stroke-width: 1.0;"/><rect fill="#FEFECE" filter="url(#f10unkb2n4g3ps)" height="36.2969" rx="12.5" ry="12.5" style="stroke: #A80036; stroke-width: 1.5;" width="48" x="342" y="414.0781"/><text fill="#000000" font-family="sans-serif" font-size="14" lengthAdjust="spacingAndGlyphs" textLength="28" x="352" y="437.0732">下载</text><path d="M440,404.0781 L430,404.0781 C415,404.0781 415,432.2266 400,432.2266 L390,432.2266 " fill="none" style="stroke: #A80036; stroke-width: 1.0;"/><rect fill="#FEFECE" filter="url(#f10unkb2n4g3ps)" height="36.2969" rx="12.5" ry="12.5" style="stroke: #A80036; stroke-width: 1.5;" width="76" x="314" y="470.375"/><text fill="#000000" font-family="sans-serif" font-size="14" lengthAdjust="spacingAndGlyphs" textLength="56" x="324" y="493.3701">异常降级</text><path d="M440,404.0781 L430,404.0781 C415,404.0781 415,488.5234 400,488.5234 L390,488.5234 " fill="none" style="stroke: #A80036; stroke-width: 1.0;"/><path d="M552,263.3359 L542,263.3359 C527,263.3359 527,404.0781 512,404.0781 L502,404.0781 " fill="none" style="stroke: #A80036; stroke-width: 1.0;"/><path d="M675,1135.9375 L665,1135.9375 C650,1135.9375 650,263.3359 635,263.3359 L625,263.3359 " fill="none" style="stroke: #A80036; stroke-width: 1.0;"/><rect fill="#FEFECE" filter="url(#f10unkb2n4g3ps)" height="36.2969" rx="12.5" ry="12.5" style="stroke: #A80036; stroke-width: 1.5;" width="90" x="535" y="582.9688"/><text fill="#000000" font-family="sans-serif" font-size="14" lengthAdjust="spacingAndGlyphs" textLength="70" x="545" y="605.9639">工具链支撑</text><rect fill="#FEFECE" filter="url(#f10unkb2n4g3ps)" height="36.2969" rx="12.5" ry="12.5" style="stroke: #A80036; stroke-width: 1.5;" width="167" x="318" y="526.6719"/><text fill="#000000" font-family="sans-serif" font-size="14" lengthAdjust="spacingAndGlyphs" textLength="147" x="328" y="549.667">线下devtool analyzer</text><path d="M535,601.1172 L525,601.1172 C510,601.1172 510,544.8203 495,544.8203 L485,544.8203 " fill="none" style="stroke: #A80036; stroke-width: 1.0;"/><rect fill="#FEFECE" filter="url(#f10unkb2n4g3ps)" height="36.2969" rx="12.5" ry="12.5" style="stroke: #A80036; stroke-width: 1.5;" width="74" x="411" y="582.9688"/><text fill="#000000" font-family="sans-serif" font-size="14" lengthAdjust="spacingAndGlyphs" textLength="54" x="421" y="605.9639">卡发 ats</text><path d="M535,601.1172 L525,601.1172 C510,601.1172 510,601.1172 495,601.1172 L485,601.1172 " fill="none" style="stroke: #A80036; stroke-width: 1.0;"/><rect fill="#FEFECE" filter="url(#f10unkb2n4g3ps)" height="36.2969" rx="12.5" ry="12.5" style="stroke: #A80036; stroke-width: 1.5;" width="118" x="367" y="639.2656"/><text fill="#000000" font-family="sans-serif" font-size="14" lengthAdjust="spacingAndGlyphs" textLength="98" x="377" y="662.2607">线上高可用平台</text><path d="M535,601.1172 L525,601.1172 C510,601.1172 510,657.4141 495,657.4141 L485,657.4141 " fill="none" style="stroke: #A80036; stroke-width: 1.0;"/><path d="M675,1135.9375 L665,1135.9375 C650,1135.9375 650,601.1172 635,601.1172 L625,601.1172 " fill="none" style="stroke: #A80036; stroke-width: 1.0;"/><rect fill="#FEFECE" filter="url(#f10unkb2n4g3ps)" height="36.2969" rx="12.5" ry="12.5" style="stroke: #A80036; stroke-width: 1.5;" width="62" x="563" y="780.0078"/><text fill="#000000" font-family="sans-serif" font-size="14" lengthAdjust="spacingAndGlyphs" textLength="42" x="573" y="803.0029">业务域</text><rect fill="#FEFECE" filter="url(#f10unkb2n4g3ps)" height="36.2969" rx="12.5" ry="12.5" style="stroke: #A80036; stroke-width: 1.5;" width="48" x="465" y="723.7109"/><text fill="#000000" font-family="sans-serif" font-size="14" lengthAdjust="spacingAndGlyphs" textLength="28" x="475" y="746.7061">平台</text><rect fill="#FEFECE" filter="url(#f10unkb2n4g3ps)" height="36.2969" rx="12.5" ry="12.5" style="stroke: #A80036; stroke-width: 1.5;" width="48" x="367" y="695.5625"/><text fill="#000000" font-family="sans-serif" font-size="14" lengthAdjust="spacingAndGlyphs" textLength="28" x="377" y="718.5576">斑马</text><path d="M465,741.8594 L455,741.8594 C440,741.8594 440,713.7109 425,713.7109 L415,713.7109 " fill="none" style="stroke: #A80036; stroke-width: 1.0;"/><rect fill="#FEFECE" filter="url(#f10unkb2n4g3ps)" height="36.2969" rx="12.5" ry="12.5" style="stroke: #A80036; stroke-width: 1.5;" width="38" x="377" y="751.8594"/><text fill="#000000" font-family="sans-serif" font-size="14" lengthAdjust="spacingAndGlyphs" textLength="18" x="387" y="774.8545">air</text><path d="M465,741.8594 L455,741.8594 C440,741.8594 440,770.0078 425,770.0078 L415,770.0078 " fill="none" style="stroke: #A80036; stroke-width: 1.0;"/><path d="M563,798.1563 L553,798.1563 C538,798.1563 538,741.8594 523,741.8594 L513,741.8594 " fill="none" style="stroke: #A80036; stroke-width: 1.0;"/><rect fill="#FEFECE" filter="url(#f10unkb2n4g3ps)" height="36.2969" rx="12.5" ry="12.5" style="stroke: #A80036; stroke-width: 1.5;" width="76" x="437" y="836.3047"/><text fill="#000000" font-family="sans-serif" font-size="14" lengthAdjust="spacingAndGlyphs" textLength="56" x="447" y="859.2998">业务合作</text><rect fill="#FEFECE" filter="url(#f10unkb2n4g3ps)" height="36.2969" rx="12.5" ry="12.5" style="stroke: #A80036; stroke-width: 1.5;" width="76" x="311" y="808.1563"/><text fill="#000000" font-family="sans-serif" font-size="14" lengthAdjust="spacingAndGlyphs" textLength="56" x="321" y="831.1514">导购业务</text><path d="M437,854.4531 L427,854.4531 C412,854.4531 412,826.3047 397,826.3047 L387,826.3047 " fill="none" style="stroke: #A80036; stroke-width: 1.0;"/><rect fill="#FEFECE" filter="url(#f10unkb2n4g3ps)" height="36.2969" rx="12.5" ry="12.5" style="stroke: #A80036; stroke-width: 1.5;" width="90" x="297" y="864.4531"/><text fill="#000000" font-family="sans-serif" font-size="14" lengthAdjust="spacingAndGlyphs" textLength="70" x="307" y="887.4482">双十一会场</text><path d="M437,854.4531 L427,854.4531 C412,854.4531 412,882.6016 397,882.6016 L387,882.6016 " fill="none" style="stroke: #A80036; stroke-width: 1.0;"/><path d="M563,798.1563 L553,798.1563 C538,798.1563 538,854.4531 523,854.4531 L513,854.4531 " fill="none" style="stroke: #A80036; stroke-width: 1.0;"/><path d="M675,1135.9375 L665,1135.9375 C650,1135.9375 650,798.1563 635,798.1563 L625,798.1563 " fill="none" style="stroke: #A80036; stroke-width: 1.0;"/><rect fill="#FEFECE" filter="url(#f10unkb2n4g3ps)" height="36.2969" rx="12.5" ry="12.5" style="stroke: #A80036; stroke-width: 1.5;" width="76" x="549" y="1568.1641"/><text fill="#000000" font-family="sans-serif" font-size="14" lengthAdjust="spacingAndGlyphs" textLength="56" x="559" y="1591.1592">经典案例</text><rect fill="#FEFECE" filter="url(#f10unkb2n4g3ps)" height="36.2969" rx="12.5" ry="12.5" style="stroke: #A80036; stroke-width: 1.5;" width="48" x="451" y="1202.2344"/><text fill="#000000" font-family="sans-serif" font-size="14" lengthAdjust="spacingAndGlyphs" textLength="28" x="461" y="1225.2295">白屏</text><rect fill="#FEFECE" filter="url(#f10unkb2n4g3ps)" height="36.2969" rx="12.5" ry="12.5" style="stroke: #A80036; stroke-width: 1.5;" width="48" x="353" y="948.8984"/><text fill="#000000" font-family="sans-serif" font-size="14" lengthAdjust="spacingAndGlyphs" textLength="28" x="363" y="971.8936">算法</text><rect fill="#FEFECE" filter="url(#f10unkb2n4g3ps)" height="36.2969" rx="12.5" ry="12.5" style="stroke: #A80036; stroke-width: 1.5;" width="76" x="227" y="920.75"/><text fill="#000000" font-family="sans-serif" font-size="14" lengthAdjust="spacingAndGlyphs" textLength="56" x="237" y="943.7451">叶子节点</text><path d="M353,967.0469 L343,967.0469 C328,967.0469 328,938.8984 313,938.8984 L303,938.8984 " fill="none" style="stroke: #A80036; stroke-width: 1.0;"/><rect fill="#FEFECE" filter="url(#f10unkb2n4g3ps)" height="36.2969" rx="12.5" ry="12.5" style="stroke: #A80036; stroke-width: 1.5;" width="104" x="199" y="977.0469"/><text fill="#000000" font-family="sans-serif" font-size="14" lengthAdjust="spacingAndGlyphs" textLength="84" x="209" y="1000.042">特殊状态忽略</text><path d="M353,967.0469 L343,967.0469 C328,967.0469 328,995.1953 313,995.1953 L303,995.1953 " fill="none" style="stroke: #A80036; stroke-width: 1.0;"/><path d="M451,1220.3828 L441,1220.3828 C426,1220.3828 426,967.0469 411,967.0469 L401,967.0469 " fill="none" style="stroke: #A80036; stroke-width: 1.0;"/><rect fill="#FEFECE" filter="url(#f10unkb2n4g3ps)" height="36.2969" rx="12.5" ry="12.5" style="stroke: #A80036; stroke-width: 1.5;" width="76" x="325" y="1117.7891"/><text fill="#000000" font-family="sans-serif" font-size="14" lengthAdjust="spacingAndGlyphs" textLength="56" x="335" y="1140.7842">排查手段</text><rect fill="#FEFECE" filter="url(#f10unkb2n4g3ps)" height="36.2969" rx="12.5" ry="12.5" style="stroke: #A80036; stroke-width: 1.5;" width="80" x="195" y="1033.3438"/><text fill="#000000" font-family="sans-serif" font-size="14" lengthAdjust="spacingAndGlyphs" textLength="60" x="205" y="1056.3389">timeline</text><path d="M325,1135.9375 L315,1135.9375 C300,1135.9375 300,1051.4922 285,1051.4922 L275,1051.4922 " fill="none" style="stroke: #A80036; stroke-width: 1.0;"/><rect fill="#FEFECE" filter="url(#f10unkb2n4g3ps)" height="36.2969" rx="12.5" ry="12.5" style="stroke: #A80036; stroke-width: 1.5;" width="86" x="189" y="1089.6406"/><text fill="#000000" font-family="sans-serif" font-size="14" lengthAdjust="spacingAndGlyphs" textLength="66" x="199" y="1112.6357">链路state</text><path d="M325,1135.9375 L315,1135.9375 C300,1135.9375 300,1107.7891 285,1107.7891 L275,1107.7891 " fill="none" style="stroke: #A80036; stroke-width: 1.0;"/><rect fill="#FEFECE" filter="url(#f10unkb2n4g3ps)" height="36.2969" rx="12.5" ry="12.5" style="stroke: #A80036; stroke-width: 1.5;" width="90" x="185" y="1145.9375"/><text fill="#000000" font-family="sans-serif" font-size="14" lengthAdjust="spacingAndGlyphs" textLength="70" x="195" y="1168.9326">重点标记位</text><path d="M325,1135.9375 L315,1135.9375 C300,1135.9375 300,1164.0859 285,1164.0859 L275,1164.0859 " fill="none" style="stroke: #A80036; stroke-width: 1.0;"/><rect fill="#FEFECE" filter="url(#f10unkb2n4g3ps)" height="36.2969" rx="12.5" ry="12.5" style="stroke: #A80036; stroke-width: 1.5;" width="76" x="199" y="1202.2344"/><text fill="#000000" font-family="sans-serif" font-size="14" lengthAdjust="spacingAndGlyphs" textLength="56" x="209" y="1225.2295">业务打点</text><path d="M325,1135.9375 L315,1135.9375 C300,1135.9375 300,1220.3828 285,1220.3828 L275,1220.3828 " fill="none" style="stroke: #A80036; stroke-width: 1.0;"/><path d="M451,1220.3828 L441,1220.3828 C426,1220.3828 426,1135.9375 411,1135.9375 L401,1135.9375 " fill="none" style="stroke: #A80036; stroke-width: 1.0;"/><rect fill="#FEFECE" filter="url(#f10unkb2n4g3ps)" height="36.2969" rx="12.5" ry="12.5" style="stroke: #A80036; stroke-width: 1.5;" width="48" x="353" y="1371.125"/><text fill="#000000" font-family="sans-serif" font-size="14" lengthAdjust="spacingAndGlyphs" textLength="28" x="363" y="1394.1201">价值</text><rect fill="#FEFECE" filter="url(#f10unkb2n4g3ps)" height="36.2969" rx="12.5" ry="12.5" style="stroke: #A80036; stroke-width: 1.5;" width="90" x="213" y="1286.6797"/><text fill="#000000" font-family="sans-serif" font-size="14" lengthAdjust="spacingAndGlyphs" textLength="70" x="223" y="1309.6748">多进程问题</text><rect fill="#FEFECE" filter="url(#f10unkb2n4g3ps)" height="36.2969" rx="12.5" ry="12.5" style="stroke: #A80036; stroke-width: 1.5;" width="115" x="48" y="1258.5313"/><text fill="#000000" font-family="sans-serif" font-size="14" lengthAdjust="spacingAndGlyphs" textLength="95" x="58" y="1281.5264">IPC block问题</text><path d="M213,1304.8281 L203,1304.8281 C188,1304.8281 188,1276.6797 173,1276.6797 L163,1276.6797 " fill="none" style="stroke: #A80036; stroke-width: 1.0;"/><rect fill="#FEFECE" filter="url(#f10unkb2n4g3ps)" height="36.2969" rx="12.5" ry="12.5" style="stroke: #A80036; stroke-width: 1.5;" width="118" x="45" y="1314.8281"/><text fill="#000000" font-family="sans-serif" font-size="14" lengthAdjust="spacingAndGlyphs" textLength="98" x="55" y="1337.8232">多进程重启问题</text><path d="M213,1304.8281 L203,1304.8281 C188,1304.8281 188,1332.9766 173,1332.9766 L163,1332.9766 " fill="none" style="stroke: #A80036; stroke-width: 1.0;"/><path d="M353,1389.2734 L343,1389.2734 C328,1389.2734 328,1304.8281 313,1304.8281 L303,1304.8281 " fill="none" style="stroke: #A80036; stroke-width: 1.0;"/><rect fill="#FEFECE" filter="url(#f10unkb2n4g3ps)" height="36.2969" rx="12.5" ry="12.5" style="stroke: #A80036; stroke-width: 1.5;" width="104" x="199" y="1427.4219"/><text fill="#000000" font-family="sans-serif" font-size="14" lengthAdjust="spacingAndGlyphs" textLength="84" x="209" y="1450.417">业务自身异常</text><rect fill="#FEFECE" filter="url(#f10unkb2n4g3ps)" height="36.2969" rx="12.5" ry="12.5" style="stroke: #A80036; stroke-width: 1.5;" width="61" x="88" y="1371.125"/><text fill="#000000" font-family="sans-serif" font-size="14" lengthAdjust="spacingAndGlyphs" textLength="41" x="98" y="1394.1201">JS错误</text><path d="M199,1445.5703 L189,1445.5703 C174,1445.5703 174,1389.2734 159,1389.2734 L149,1389.2734 " fill="none" style="stroke: #A80036; stroke-width: 1.0;"/><rect fill="#FEFECE" filter="url(#f10unkb2n4g3ps)" height="36.2969" rx="12.5" ry="12.5" style="stroke: #A80036; stroke-width: 1.5;" width="76" x="73" y="1427.4219"/><text fill="#000000" font-family="sans-serif" font-size="14" lengthAdjust="spacingAndGlyphs" textLength="56" x="83" y="1450.417">发布异常</text><path d="M199,1445.5703 L189,1445.5703 C174,1445.5703 174,1445.5703 159,1445.5703 L149,1445.5703 " fill="none" style="stroke: #A80036; stroke-width: 1.0;"/><rect fill="#FEFECE" filter="url(#f10unkb2n4g3ps)" height="36.2969" rx="12.5" ry="12.5" style="stroke: #A80036; stroke-width: 1.5;" width="76" x="73" y="1483.7188"/><text fill="#000000" font-family="sans-serif" font-size="14" lengthAdjust="spacingAndGlyphs" textLength="56" x="83" y="1506.7139">数据错误</text><path d="M199,1445.5703 L189,1445.5703 C174,1445.5703 174,1501.8672 159,1501.8672 L149,1501.8672 " fill="none" style="stroke: #A80036; stroke-width: 1.0;"/><path d="M353,1389.2734 L343,1389.2734 C328,1389.2734 328,1445.5703 313,1445.5703 L303,1445.5703 " fill="none" style="stroke: #A80036; stroke-width: 1.0;"/><path d="M451,1220.3828 L441,1220.3828 C426,1220.3828 426,1389.2734 411,1389.2734 L401,1389.2734 " fill="none" style="stroke: #A80036; stroke-width: 1.0;"/><path d="M549,1586.3125 L539,1586.3125 C524,1586.3125 524,1220.3828 509,1220.3828 L499,1220.3828 " fill="none" style="stroke: #A80036; stroke-width: 1.0;"/><rect fill="#FEFECE" filter="url(#f10unkb2n4g3ps)" height="36.2969" rx="12.5" ry="12.5" style="stroke: #A80036; stroke-width: 1.5;" width="90" x="409" y="1708.9063"/><text fill="#000000" font-family="sans-serif" font-size="14" lengthAdjust="spacingAndGlyphs" textLength="70" x="419" y="1731.9014">可交互时间</text><rect fill="#FEFECE" filter="url(#f10unkb2n4g3ps)" height="36.2969" rx="12.5" ry="12.5" style="stroke: #A80036; stroke-width: 1.5;" width="48" x="311" y="1596.3125"/><text fill="#000000" font-family="sans-serif" font-size="14" lengthAdjust="spacingAndGlyphs" textLength="28" x="321" y="1619.3076">算法</text><rect fill="#FEFECE" filter="url(#f10unkb2n4g3ps)" height="36.2969" rx="12.5" ry="12.5" style="stroke: #A80036; stroke-width: 1.5;" width="76" x="185" y="1540.0156"/><text fill="#000000" font-family="sans-serif" font-size="14" lengthAdjust="spacingAndGlyphs" textLength="56" x="195" y="1563.0107">叶子节点</text><path d="M311,1614.4609 L301,1614.4609 C286,1614.4609 286,1558.1641 271,1558.1641 L261,1558.1641 " fill="none" style="stroke: #A80036; stroke-width: 1.0;"/><rect fill="#FEFECE" filter="url(#f10unkb2n4g3ps)" height="36.2969" rx="12.5" ry="12.5" style="stroke: #A80036; stroke-width: 1.5;" width="147" x="114" y="1596.3125"/><text fill="#000000" font-family="sans-serif" font-size="14" lengthAdjust="spacingAndGlyphs" textLength="127" x="124" y="1619.3076">边界值：不可见、8s</text><path d="M311,1614.4609 L301,1614.4609 C286,1614.4609 286,1614.4609 271,1614.4609 L261,1614.4609 " fill="none" style="stroke: #A80036; stroke-width: 1.0;"/><rect fill="#FEFECE" filter="url(#f10unkb2n4g3ps)" height="36.2969" rx="12.5" ry="12.5" style="stroke: #A80036; stroke-width: 1.5;" width="126" x="135" y="1652.6094"/><text fill="#000000" font-family="sans-serif" font-size="14" lengthAdjust="spacingAndGlyphs" textLength="106" x="145" y="1675.6045">业务特性：fixed</text><path d="M311,1614.4609 L301,1614.4609 C286,1614.4609 286,1670.7578 271,1670.7578 L261,1670.7578 " fill="none" style="stroke: #A80036; stroke-width: 1.0;"/><path d="M409,1727.0547 L399,1727.0547 C384,1727.0547 384,1614.4609 369,1614.4609 L359,1614.4609 " fill="none" style="stroke: #A80036; stroke-width: 1.0;"/><rect fill="#FEFECE" filter="url(#f10unkb2n4g3ps)" height="36.2969" rx="12.5" ry="12.5" style="stroke: #A80036; stroke-width: 1.5;" width="66" x="293" y="1708.9063"/><text fill="#000000" font-family="sans-serif" font-size="14" lengthAdjust="spacingAndGlyphs" textLength="42" x="303" y="1731.9014">准确度</text><rect fill="#FEFECE" filter="url(#f10unkb2n4g3ps)" height="36.2969" rx="12.5" ry="12.5" style="stroke: #A80036; stroke-width: 1.5;" width="141" x="102" y="1708.9063"/><text fill="#000000" font-family="sans-serif" font-size="14" lengthAdjust="spacingAndGlyphs" textLength="121" x="112" y="1731.9014">视频逐帧 3%-15%</text><path d="M293,1727.0547 L283,1727.0547 C268,1727.0547 268,1727.0547 253,1727.0547 L243,1727.0547 " fill="none" style="stroke: #A80036; stroke-width: 1.0;"/><path d="M409,1727.0547 L399,1727.0547 C384,1727.0547 384,1727.0547 369,1727.0547 L359,1727.0547 " fill="none" style="stroke: #A80036; stroke-width: 1.0;"/><rect fill="#FEFECE" filter="url(#f10unkb2n4g3ps)" height="36.2969" rx="12.5" ry="12.5" style="stroke: #A80036; stroke-width: 1.5;" width="48" x="311" y="1821.5"/><text fill="#000000" font-family="sans-serif" font-size="14" lengthAdjust="spacingAndGlyphs" textLength="28" x="321" y="1844.4951">价值</text><rect fill="#FEFECE" filter="url(#f10unkb2n4g3ps)" height="36.2969" rx="12.5" ry="12.5" style="stroke: #A80036; stroke-width: 1.5;" width="169" x="92" y="1765.2031"/><text fill="#000000" font-family="sans-serif" font-size="14" lengthAdjust="spacingAndGlyphs" textLength="149" x="102" y="1788.1982">阿里weex业务衡量标准</text><path d="M311,1839.6484 L301,1839.6484 C286,1839.6484 286,1783.3516 271,1783.3516 L261,1783.3516 " fill="none" style="stroke: #A80036; stroke-width: 1.0;"/><rect fill="#FEFECE" filter="url(#f10unkb2n4g3ps)" height="36.2969" rx="12.5" ry="12.5" style="stroke: #A80036; stroke-width: 1.5;" width="146" x="115" y="1821.5"/><text fill="#000000" font-family="sans-serif" font-size="14" lengthAdjust="spacingAndGlyphs" textLength="126" x="125" y="1844.4951">双十一会场衡量体系</text><path d="M311,1839.6484 L301,1839.6484 C286,1839.6484 286,1839.6484 271,1839.6484 L261,1839.6484 " fill="none" style="stroke: #A80036; stroke-width: 1.0;"/><rect fill="#FEFECE" filter="url(#f10unkb2n4g3ps)" height="36.2969" rx="12.5" ry="12.5" style="stroke: #A80036; stroke-width: 1.5;" width="196" x="65" y="1877.7969"/><text fill="#000000" font-family="sans-serif" font-size="14" lengthAdjust="spacingAndGlyphs" textLength="176" x="75" y="1900.792">小程序/架构native参考标准</text><path d="M311,1839.6484 L301,1839.6484 C286,1839.6484 286,1895.9453 271,1895.9453 L261,1895.9453 " fill="none" style="stroke: #A80036; stroke-width: 1.0;"/><path d="M409,1727.0547 L399,1727.0547 C384,1727.0547 384,1839.6484 369,1839.6484 L359,1839.6484 " fill="none" style="stroke: #A80036; stroke-width: 1.0;"/><path d="M549,1586.3125 L539,1586.3125 C524,1586.3125 524,1727.0547 509,1727.0547 L499,1727.0547 " fill="none" style="stroke: #A80036; stroke-width: 1.0;"/><rect fill="#FEFECE" filter="url(#f10unkb2n4g3ps)" height="36.2969" rx="12.5" ry="12.5" style="stroke: #A80036; stroke-width: 1.5;" width="76" x="423" y="2074.8359"/><text fill="#000000" font-family="sans-serif" font-size="14" lengthAdjust="spacingAndGlyphs" textLength="56" x="433" y="2097.8311">异常监控</text><rect fill="#FEFECE" filter="url(#f10unkb2n4g3ps)" height="36.2969" rx="12.5" ry="12.5" style="stroke: #A80036; stroke-width: 1.5;" width="48" x="325" y="1990.3906"/><text fill="#000000" font-family="sans-serif" font-size="14" lengthAdjust="spacingAndGlyphs" textLength="28" x="335" y="2013.3857">技术</text><rect fill="#FEFECE" filter="url(#f10unkb2n4g3ps)" height="36.2969" rx="12.5" ry="12.5" style="stroke: #A80036; stroke-width: 1.5;" width="139" x="136" y="1934.0938"/><text fill="#000000" font-family="sans-serif" font-size="14" lengthAdjust="spacingAndGlyphs" textLength="119" x="146" y="1957.0889">异常分类(js、白屏)</text><path d="M325,2008.5391 L315,2008.5391 C300,2008.5391 300,1952.2422 285,1952.2422 L275,1952.2422 " fill="none" style="stroke: #A80036; stroke-width: 1.0;"/><rect fill="#FEFECE" filter="url(#f10unkb2n4g3ps)" height="36.2969" rx="12.5" ry="12.5" style="stroke: #A80036; stroke-width: 1.5;" width="104" x="171" y="1990.3906"/><text fill="#000000" font-family="sans-serif" font-size="14" lengthAdjust="spacingAndGlyphs" textLength="84" x="181" y="2013.3857">降级采样预案</text><path d="M325,2008.5391 L315,2008.5391 C300,2008.5391 300,2008.5391 285,2008.5391 L275,2008.5391 " fill="none" style="stroke: #A80036; stroke-width: 1.0;"/><rect fill="#FEFECE" filter="url(#f10unkb2n4g3ps)" height="36.2969" rx="12.5" ry="12.5" style="stroke: #A80036; stroke-width: 1.5;" width="76" x="199" y="2046.6875"/><text fill="#000000" font-family="sans-serif" font-size="14" lengthAdjust="spacingAndGlyphs" textLength="56" x="209" y="2069.6826">告警策略</text><path d="M325,2008.5391 L315,2008.5391 C300,2008.5391 300,2064.8359 285,2064.8359 L275,2064.8359 " fill="none" style="stroke: #A80036; stroke-width: 1.0;"/><path d="M423,2092.9844 L413,2092.9844 C398,2092.9844 398,2008.5391 383,2008.5391 L373,2008.5391 " fill="none" style="stroke: #A80036; stroke-width: 1.0;"/><rect fill="#FEFECE" filter="url(#f10unkb2n4g3ps)" height="36.2969" rx="12.5" ry="12.5" style="stroke: #A80036; stroke-width: 1.5;" width="48" x="325" y="2159.2813"/><text fill="#000000" font-family="sans-serif" font-size="14" lengthAdjust="spacingAndGlyphs" textLength="28" x="335" y="2182.2764">价值</text><rect fill="#FEFECE" filter="url(#f10unkb2n4g3ps)" height="36.2969" rx="12.5" ry="12.5" style="stroke: #A80036; stroke-width: 1.5;" width="265" x="10" y="2102.9844"/><text fill="#000000" font-family="sans-serif" font-size="14" lengthAdjust="spacingAndGlyphs" textLength="245" x="20" y="2125.9795">双十一多次告警js错误(展示、交互异常)</text><path d="M325,2177.4297 L315,2177.4297 C300,2177.4297 300,2121.1328 285,2121.1328 L275,2121.1328 " fill="none" style="stroke: #A80036; stroke-width: 1.0;"/><rect fill="#FEFECE" filter="url(#f10unkb2n4g3ps)" height="36.2969" rx="12.5" ry="12.5" style="stroke: #A80036; stroke-width: 1.5;" width="122" x="153" y="2159.2813"/><text fill="#000000" font-family="sans-serif" font-size="14" lengthAdjust="spacingAndGlyphs" textLength="102" x="163" y="2182.2764">手淘p2故障监控</text><path d="M325,2177.4297 L315,2177.4297 C300,2177.4297 300,2177.4297 285,2177.4297 L275,2177.4297 " fill="none" style="stroke: #A80036; stroke-width: 1.0;"/><rect fill="#FEFECE" filter="url(#f10unkb2n4g3ps)" height="36.2969" rx="12.5" ry="12.5" style="stroke: #A80036; stroke-width: 1.5;" width="133" x="142" y="2215.5781"/><text fill="#000000" font-family="sans-serif" font-size="14" lengthAdjust="spacingAndGlyphs" textLength="113" x="152" y="2238.5732">90+app接入支持</text><path d="M325,2177.4297 L315,2177.4297 C300,2177.4297 300,2233.7266 285,2233.7266 L275,2233.7266 " fill="none" style="stroke: #A80036; stroke-width: 1.0;"/><path d="M423,2092.9844 L413,2092.9844 C398,2092.9844 398,2177.4297 383,2177.4297 L373,2177.4297 " fill="none" style="stroke: #A80036; stroke-width: 1.0;"/><path d="M549,1586.3125 L539,1586.3125 C524,1586.3125 524,2092.9844 509,2092.9844 L499,2092.9844 " fill="none" style="stroke: #A80036; stroke-width: 1.0;"/><path d="M675,1135.9375 L665,1135.9375 C650,1135.9375 650,1586.3125 635,1586.3125 L625,1586.3125 " fill="none" style="stroke: #A80036; stroke-width: 1.0;"/><path d="M787,1135.9375 L777,1135.9375 C762,1135.9375 762,1135.9375 747,1135.9375 L737,1135.9375 " fill="none" style="stroke: #A80036; stroke-width: 1.0;"/><!--MD5=[0899ddf3ca558835051636b9e7c9a4f5]
@startmindmap

+ WEEX
- - 高可用
- - -  sdk指标
- - - - 性能
- - - - - 可交互时间
- - - - - - 下载
- - - - - - 执行bundle
- - - - - - 数据请求
- - - - - - domdiff耗时
- - - - - - view耗时
- - - - - 首屏时间
- - - - 稳定性
- - - - - JSError
- - - - - 白屏
- - - - - 下载
- - - - - 异常降级
- - - 工具链支撑
- - - - 线下devtool analyzer
- - - - 卡发 ats
- - - - 线上高可用平台
- - - 业务域
- - - - 平台
- - - - - 斑马
- - - - - air
- - - - 业务合作
- - - - - 导购业务
- - - - - 双十一会场
- - - 经典案例
- - - - 白屏
- - - - - 算法
- - - - - - 叶子节点
- - - - - - 特殊状态忽略
- - - - - 排查手段
- - - - - - timeline
- - - - - - 链路state
- - - - - - 重点标记位
- - - - - - 业务打点
- - - - - 价值
- - - - - - 多进程问题
- - - - - - - IPC block问题
- - - - - - - 多进程重启问题
- - - - - - 业务自身异常
- - - - - - - JS错误
- - - - - - - 发布异常
- - - - - - - 数据错误
- - - - 可交互时间
- - - - - 算法
- - - - - - 叶子节点
- - - - - - 边界值：不可见、8s
- - - - - - 业务特性：fixed
- - - - - 准确度 
- - - - - - 视频逐帧 3%-15%
- - - - - 价值
- - - - - - 阿里weex业务衡量标准
- - - - - - 双十一会场衡量体系
- - - - - - 小程序/架构native参考标准
- - - - 异常监控
- - - - - 技术
- - - - - - 异常分类(js、白屏)
- - - - - - 降级采样预案
- - - - - - 告警策略
- - - - - 价值
- - - - - - 双十一多次告警js错误(展示、交互异常)
- - - - - - 手淘p2故障监控
- - - - - - 90+app接入支持
++ weexCore
+++ IPC
++++ futext机制 cas
++++ mmap 共享内存
++++ 进程信号量通知
++++ 设计方案
+++++ 双向通信
+++++ 内存快控制（父偶子奇+futex）
+++++ 消息队列
+++++ bridge设计
++++++ 单双进程解耦、切换
+++ LayoutEngine
+++ bridge设计
++++ platform解耦
+++++ Android
+++++ iOS
+++++ windows、...
+++++ heron自绘制
++++ engine action解耦 
+++++ 二进制预编译方案（ast指令集）
+++ Android/iOS merge
+++ SandBox
++++ 全局污染
++++ JS vm 设计
+++ MutilThread
++++ UI 
++++ Core layout renderAction
++++ JS
++ JSRuntime
+++ BindingApi
++++ JSC
++++ V8
+++ ContextManager
+++ DomApi
+++ NativeModule

@endmindmap

PlantUML version 1.2020.15beta1(Unknown compile time)
(GPL source distribution)
Java Runtime: Java(TM) SE Runtime Environment
JVM: Java HotSpot(TM) 64-Bit Server VM
Default Encoding: UTF-8
Language: en
Country: US
--></g></svg>