<?xml version="1.0" encoding="UTF-8" standalone="no"?><svg xmlns="http://www.w3.org/2000/svg" xmlns:xlink="http://www.w3.org/1999/xlink" contentStyleType="text/css" height="976px" preserveAspectRatio="none" style="width:1626px;height:976px;background:#FFFFFF;" version="1.1" viewBox="0 0 1626 976" width="1626px" zoomAndPan="magnify"><defs/><g><rect fill="none" height="133.6641" style="stroke:#000000;stroke-width:1.5;" width="399.5" x="365" y="155.8281"/><line style="stroke:#181818;stroke-width:0.5;stroke-dasharray:5.0,5.0;" x1="28" x2="28" y1="36.2969" y2="941.1484"/><line style="stroke:#181818;stroke-width:0.5;stroke-dasharray:5.0,5.0;" x1="142" x2="142" y1="36.2969" y2="941.1484"/><line style="stroke:#181818;stroke-width:0.5;stroke-dasharray:5.0,5.0;" x1="286" x2="286" y1="36.2969" y2="941.1484"/><line style="stroke:#181818;stroke-width:0.5;stroke-dasharray:5.0,5.0;" x1="450" x2="450" y1="36.2969" y2="941.1484"/><line style="stroke:#181818;stroke-width:0.5;stroke-dasharray:5.0,5.0;" x1="667.5" x2="667.5" y1="36.2969" y2="941.1484"/><line style="stroke:#181818;stroke-width:0.5;stroke-dasharray:5.0,5.0;" x1="862.5" x2="862.5" y1="36.2969" y2="941.1484"/><line style="stroke:#181818;stroke-width:0.5;stroke-dasharray:5.0,5.0;" x1="1004.5" x2="1004.5" y1="36.2969" y2="941.1484"/><line style="stroke:#181818;stroke-width:0.5;stroke-dasharray:5.0,5.0;" x1="1101.5" x2="1101.5" y1="36.2969" y2="941.1484"/><line style="stroke:#181818;stroke-width:0.5;stroke-dasharray:5.0,5.0;" x1="1262.5" x2="1262.5" y1="36.2969" y2="941.1484"/><line style="stroke:#181818;stroke-width:0.5;stroke-dasharray:5.0,5.0;" x1="1402.5" x2="1402.5" y1="36.2969" y2="941.1484"/><line style="stroke:#181818;stroke-width:0.5;stroke-dasharray:5.0,5.0;" x1="1474.5" x2="1474.5" y1="36.2969" y2="941.1484"/><line style="stroke:#181818;stroke-width:0.5;stroke-dasharray:5.0,5.0;" x1="1567.5" x2="1567.5" y1="36.2969" y2="941.1484"/><rect fill="#E2E2F0" height="30.2969" rx="2.5" ry="2.5" style="stroke:#181818;stroke-width:0.5;" width="46" x="5" y="5"/><text fill="#000000" font-family="sans-serif" font-size="14" lengthAdjust="spacing" textLength="32" x="12" y="24.9951">Main</text><rect fill="#E2E2F0" height="30.2969" rx="2.5" ry="2.5" style="stroke:#181818;stroke-width:0.5;" width="46" x="5" y="940.1484"/><text fill="#000000" font-family="sans-serif" font-size="14" lengthAdjust="spacing" textLength="32" x="12" y="960.1436">Main</text><rect fill="#E2E2F0" height="30.2969" rx="2.5" ry="2.5" style="stroke:#181818;stroke-width:0.5;" width="112" x="86" y="5"/><text fill="#000000" font-family="sans-serif" font-size="14" lengthAdjust="spacing" textLength="98" x="93" y="24.9951">FlutterWindow</text><rect fill="#E2E2F0" height="30.2969" rx="2.5" ry="2.5" style="stroke:#181818;stroke-width:0.5;" width="112" x="86" y="940.1484"/><text fill="#000000" font-family="sans-serif" font-size="14" lengthAdjust="spacing" textLength="98" x="93" y="960.1436">FlutterWindow</text><rect fill="#E2E2F0" height="30.2969" rx="2.5" ry="2.5" style="stroke:#181818;stroke-width:0.5;" width="157" x="208" y="5"/><text fill="#000000" font-family="sans-serif" font-size="14" lengthAdjust="spacing" textLength="143" x="215" y="24.9951">FlutterViewController</text><rect fill="#E2E2F0" height="30.2969" rx="2.5" ry="2.5" style="stroke:#181818;stroke-width:0.5;" width="157" x="208" y="940.1484"/><text fill="#000000" font-family="sans-serif" font-size="14" lengthAdjust="spacing" textLength="143" x="215" y="960.1436">FlutterViewController</text><rect fill="#E2E2F0" height="30.2969" rx="2.5" ry="2.5" style="stroke:#181818;stroke-width:0.5;" width="150" x="375" y="5"/><text fill="#000000" font-family="sans-serif" font-size="14" lengthAdjust="spacing" textLength="136" x="382" y="24.9951">FlutterELinuxEngine</text><rect fill="#E2E2F0" height="30.2969" rx="2.5" ry="2.5" style="stroke:#181818;stroke-width:0.5;" width="150" x="375" y="940.1484"/><text fill="#000000" font-family="sans-serif" font-size="14" lengthAdjust="spacing" textLength="136" x="382" y="960.1436">FlutterELinuxEngine</text><rect fill="#E2E2F0" height="30.2969" rx="2.5" ry="2.5" style="stroke:#181818;stroke-width:0.5;" width="173" x="581.5" y="5"/><text fill="#000000" font-family="sans-serif" font-size="14" lengthAdjust="spacing" textLength="159" x="588.5" y="24.9951">WindowBindingHandler</text><rect fill="#E2E2F0" height="30.2969" rx="2.5" ry="2.5" style="stroke:#181818;stroke-width:0.5;" width="173" x="581.5" y="940.1484"/><text fill="#000000" font-family="sans-serif" font-size="14" lengthAdjust="spacing" textLength="159" x="588.5" y="960.1436">WindowBindingHandler</text><rect fill="#FF0000" height="30.2969" rx="2.5" ry="2.5" style="stroke:#181818;stroke-width:0.5;" width="196" x="764.5" y="5"/><text fill="#000000" font-family="sans-serif" font-size="14" lengthAdjust="spacing" textLength="182" x="771.5" y="24.9951">ELinuxWindowFrameBuffer</text><rect fill="#FF0000" height="30.2969" rx="2.5" ry="2.5" style="stroke:#181818;stroke-width:0.5;" width="196" x="764.5" y="940.1484"/><text fill="#000000" font-family="sans-serif" font-size="14" lengthAdjust="spacing" textLength="182" x="771.5" y="960.1436">ELinuxWindowFrameBuffer</text><rect fill="#FFA500" height="30.2969" rx="2.5" ry="2.5" style="stroke:#181818;stroke-width:0.5;" width="68" x="970.5" y="5"/><text fill="#000000" font-family="sans-serif" font-size="14" lengthAdjust="spacing" textLength="54" x="977.5" y="24.9951">LibInput</text><rect fill="#FFA500" height="30.2969" rx="2.5" ry="2.5" style="stroke:#181818;stroke-width:0.5;" width="68" x="970.5" y="940.1484"/><text fill="#000000" font-family="sans-serif" font-size="14" lengthAdjust="spacing" textLength="54" x="977.5" y="960.1436">LibInput</text><rect fill="#ADD8E6" height="30.2969" rx="2.5" ry="2.5" style="stroke:#181818;stroke-width:0.5;" width="107" x="1048.5" y="5"/><text fill="#000000" font-family="sans-serif" font-size="14" lengthAdjust="spacing" textLength="93" x="1055.5" y="24.9951">EmbedderApi</text><rect fill="#ADD8E6" height="30.2969" rx="2.5" ry="2.5" style="stroke:#181818;stroke-width:0.5;" width="107" x="1048.5" y="940.1484"/><text fill="#000000" font-family="sans-serif" font-size="14" lengthAdjust="spacing" textLength="93" x="1055.5" y="960.1436">EmbedderApi</text><rect fill="#FF0000" height="30.2969" rx="2.5" ry="2.5" style="stroke:#181818;stroke-width:0.5;" width="194" x="1165.5" y="5"/><text fill="#000000" font-family="sans-serif" font-size="14" lengthAdjust="spacing" textLength="180" x="1172.5" y="24.9951">NativeWindowFrameBuffer</text><rect fill="#FF0000" height="30.2969" rx="2.5" ry="2.5" style="stroke:#181818;stroke-width:0.5;" width="194" x="1165.5" y="940.1484"/><text fill="#000000" font-family="sans-serif" font-size="14" lengthAdjust="spacing" textLength="180" x="1172.5" y="960.1436">NativeWindowFrameBuffer</text><rect fill="#FFA500" height="30.2969" rx="2.5" ry="2.5" style="stroke:#181818;stroke-width:0.5;" width="66" x="1369.5" y="5"/><text fill="#000000" font-family="sans-serif" font-size="14" lengthAdjust="spacing" textLength="52" x="1376.5" y="24.9951">LinuxFb</text><rect fill="#FFA500" height="30.2969" rx="2.5" ry="2.5" style="stroke:#181818;stroke-width:0.5;" width="66" x="1369.5" y="940.1484"/><text fill="#000000" font-family="sans-serif" font-size="14" lengthAdjust="spacing" textLength="52" x="1376.5" y="960.1436">LinuxFb</text><rect fill="#E2E2F0" height="30.2969" rx="2.5" ry="2.5" style="stroke:#181818;stroke-width:0.5;" width="59" x="1445.5" y="5"/><text fill="#000000" font-family="sans-serif" font-size="14" lengthAdjust="spacing" textLength="45" x="1452.5" y="24.9951">LibInpt</text><rect fill="#E2E2F0" height="30.2969" rx="2.5" ry="2.5" style="stroke:#181818;stroke-width:0.5;" width="59" x="1445.5" y="940.1484"/><text fill="#000000" font-family="sans-serif" font-size="14" lengthAdjust="spacing" textLength="45" x="1452.5" y="960.1436">LibInpt</text><rect fill="#E2E2F0" height="30.2969" rx="2.5" ry="2.5" style="stroke:#181818;stroke-width:0.5;" width="106" x="1514.5" y="5"/><text fill="#000000" font-family="sans-serif" font-size="14" lengthAdjust="spacing" textLength="92" x="1521.5" y="24.9951">FlutterEngine</text><rect fill="#E2E2F0" height="30.2969" rx="2.5" ry="2.5" style="stroke:#181818;stroke-width:0.5;" width="106" x="1514.5" y="940.1484"/><text fill="#000000" font-family="sans-serif" font-size="14" lengthAdjust="spacing" textLength="92" x="1521.5" y="960.1436">FlutterEngine</text><polygon fill="#181818" points="130,63.4297,140,67.4297,130,71.4297,134,67.4297" style="stroke:#181818;stroke-width:1.0;"/><line style="stroke:#181818;stroke-width:1.0;" x1="28" x2="136" y1="67.4297" y2="67.4297"/><text fill="#000000" font-family="sans-serif" font-size="13" font-weight="bold" lengthAdjust="spacing" textLength="9" x="35" y="62.3638">1</text><text fill="#000000" font-family="sans-serif" font-size="13" lengthAdjust="spacing" textLength="61" x="48" y="62.3638">OnCreate</text><polygon fill="#181818" points="274.5,92.5625,284.5,96.5625,274.5,100.5625,278.5,96.5625" style="stroke:#181818;stroke-width:1.0;"/><line style="stroke:#181818;stroke-width:1.0;" x1="142" x2="280.5" y1="96.5625" y2="96.5625"/><text fill="#000000" font-family="sans-serif" font-size="13" font-weight="bold" lengthAdjust="spacing" textLength="9" x="149" y="91.4966">2</text><text fill="#000000" font-family="sans-serif" font-size="13" lengthAdjust="spacing" textLength="79" x="162" y="91.4966">construction</text><polygon fill="#181818" points="438,136.8281,448,140.8281,438,144.8281,442,140.8281" style="stroke:#181818;stroke-width:1.0;"/><line style="stroke:#181818;stroke-width:1.0;" x1="286.5" x2="444" y1="140.8281" y2="140.8281"/><text fill="#000000" font-family="sans-serif" font-size="13" font-weight="bold" lengthAdjust="spacing" textLength="9" x="293.5" y="128.1958">3</text><text fill="#000000" font-family="sans-serif" font-size="13" lengthAdjust="spacing" textLength="123" x="306.5" y="120.6294">FlutterDesktopView</text><text fill="#000000" font-family="sans-serif" font-size="13" lengthAdjust="spacing" textLength="105" x="306.5" y="135.7622">ControllerCreate</text><path d="M365,155.8281 L429,155.8281 L429,162.9609 L419,172.9609 L365,172.9609 L365,155.8281 " fill="#EEEEEE" style="stroke:#000000;stroke-width:1.5;"/><rect fill="none" height="133.6641" style="stroke:#000000;stroke-width:1.5;" width="399.5" x="365" y="155.8281"/><text fill="#000000" font-family="sans-serif" font-size="13" font-weight="bold" lengthAdjust="spacing" textLength="19" x="380" y="168.895">alt</text><text fill="#000000" font-family="sans-serif" font-size="11" font-weight="bold" lengthAdjust="spacing" textLength="43" x="444" y="168.0386">[宏定义]</text><polygon fill="#181818" points="656,190.0938,666,194.0938,656,198.0938,660,194.0938" style="stroke:#181818;stroke-width:1.0;"/><line style="stroke:#181818;stroke-width:1.0;" x1="450" x2="662" y1="194.0938" y2="194.0938"/><text fill="#000000" font-family="sans-serif" font-size="13" font-weight="bold" lengthAdjust="spacing" textLength="9" x="457" y="189.0278">4</text><text fill="#000000" font-family="sans-serif" font-size="13" lengthAdjust="spacing" textLength="147" x="470" y="189.0278">NativeWindowDrmGbm</text><polygon fill="#181818" points="656,219.2266,666,223.2266,656,227.2266,660,223.2266" style="stroke:#181818;stroke-width:1.0;"/><line style="stroke:#181818;stroke-width:1.0;" x1="450" x2="662" y1="223.2266" y2="223.2266"/><text fill="#000000" font-family="sans-serif" font-size="13" font-weight="bold" lengthAdjust="spacing" textLength="9" x="457" y="218.1606">5</text><text fill="#000000" font-family="sans-serif" font-size="13" lengthAdjust="spacing" textLength="181" x="470" y="218.1606">NativeWindowDrmEglstream</text><polygon fill="#181818" points="656,248.3594,666,252.3594,656,256.3594,660,252.3594" style="stroke:#181818;stroke-width:1.0;"/><line style="stroke:#181818;stroke-width:1.0;" x1="450" x2="662" y1="252.3594" y2="252.3594"/><text fill="#000000" font-family="sans-serif" font-size="13" font-weight="bold" lengthAdjust="spacing" textLength="9" x="457" y="247.2935">6</text><text fill="#000000" font-family="sans-serif" font-size="13" lengthAdjust="spacing" textLength="112" x="470" y="247.2935">ELinuxWindowX11</text><polygon fill="#181818" points="656,277.4922,666,281.4922,656,285.4922,660,281.4922" style="stroke:#181818;stroke-width:1.0;"/><line style="stroke:#181818;stroke-width:1.0;" x1="450" x2="662" y1="281.4922" y2="281.4922"/><text fill="#000000" font-family="sans-serif" font-size="13" font-weight="bold" lengthAdjust="spacing" textLength="9" x="457" y="276.4263">7</text><text fill="#000000" font-family="sans-serif" font-size="13" lengthAdjust="spacing" textLength="141" x="470" y="276.4263">ELinuxWindowWayland</text><polygon fill="#FF0000" points="850.5,313.625,860.5,317.625,850.5,321.625,854.5,317.625" style="stroke:#FF0000;stroke-width:1.0;"/><line style="stroke:#FF0000;stroke-width:1.0;" x1="450" x2="856.5" y1="317.625" y2="317.625"/><text fill="#000000" font-family="sans-serif" font-size="13" font-weight="bold" lengthAdjust="spacing" textLength="9" x="457" y="312.5591">8</text><text fill="#000000" font-family="sans-serif" font-size="13" lengthAdjust="spacing" textLength="79" x="470" y="312.5591">construction</text><polygon fill="#FFA500" points="992.5,342.7578,1002.5,346.7578,992.5,350.7578,996.5,346.7578" style="stroke:#FFA500;stroke-width:1.0;"/><line style="stroke:#FFA500;stroke-width:1.0;" x1="862.5" x2="998.5" y1="346.7578" y2="346.7578"/><text fill="#000000" font-family="sans-serif" font-size="13" font-weight="bold" lengthAdjust="spacing" textLength="9" x="869.5" y="341.6919">9</text><text fill="#000000" font-family="sans-serif" font-size="13" lengthAdjust="spacing" textLength="65" x="882.5" y="341.6919">loop listen</text><polygon fill="#FFA500" points="873.5,371.8906,863.5,375.8906,873.5,379.8906,869.5,375.8906" style="stroke:#FFA500;stroke-width:1.0;"/><line style="stroke:#FFA500;stroke-width:1.0;" x1="867.5" x2="1003.5" y1="375.8906" y2="375.8906"/><text fill="#000000" font-family="sans-serif" font-size="13" font-weight="bold" lengthAdjust="spacing" textLength="18" x="879.5" y="370.8247">10</text><text fill="#000000" font-family="sans-serif" font-size="13" lengthAdjust="spacing" textLength="36" x="901.5" y="370.8247">event</text><polygon fill="#181818" points="461,401.0234,451,405.0234,461,409.0234,457,405.0234" style="stroke:#181818;stroke-width:1.0;"/><line style="stroke:#181818;stroke-width:1.0;" x1="455" x2="861.5" y1="405.0234" y2="405.0234"/><text fill="#000000" font-family="sans-serif" font-size="13" font-weight="bold" lengthAdjust="spacing" textLength="18" x="467" y="399.9575">11</text><text fill="#000000" font-family="sans-serif" font-size="13" lengthAdjust="spacing" textLength="67" x="489" y="399.9575">sendEvent</text><polygon fill="#0000FF" points="1090,430.1563,1100,434.1563,1090,438.1563,1094,434.1563" style="stroke:#0000FF;stroke-width:1.0;"/><line style="stroke:#0000FF;stroke-width:1.0;" x1="450" x2="1096" y1="434.1563" y2="434.1563"/><text fill="#000000" font-family="sans-serif" font-size="13" font-weight="bold" lengthAdjust="spacing" textLength="18" x="457" y="429.0903">12</text><text fill="#000000" font-family="sans-serif" font-size="13" lengthAdjust="spacing" textLength="67" x="479" y="429.0903">sendEvent</text><line style="stroke:#181818;stroke-width:1.0;" x1="450" x2="492" y1="463.2891" y2="463.2891"/><line style="stroke:#181818;stroke-width:1.0;" x1="492" x2="492" y1="463.2891" y2="476.2891"/><line style="stroke:#181818;stroke-width:1.0;" x1="451" x2="492" y1="476.2891" y2="476.2891"/><polygon fill="#181818" points="461,472.2891,451,476.2891,461,480.2891,457,476.2891" style="stroke:#181818;stroke-width:1.0;"/><text fill="#000000" font-family="sans-serif" font-size="13" font-weight="bold" lengthAdjust="spacing" textLength="18" x="457" y="458.2231">13</text><text fill="#000000" font-family="sans-serif" font-size="13" lengthAdjust="spacing" textLength="116" x="479" y="458.2231">RunWithEntrypoint</text><polygon fill="#0000FF" points="1090,501.4219,1100,505.4219,1090,509.4219,1094,505.4219" style="stroke:#0000FF;stroke-width:1.0;"/><line style="stroke:#0000FF;stroke-width:1.0;" x1="450" x2="1096" y1="505.4219" y2="505.4219"/><text fill="#000000" font-family="sans-serif" font-size="13" font-weight="bold" lengthAdjust="spacing" textLength="18" x="457" y="500.356">14</text><text fill="#000000" font-family="sans-serif" font-size="13" lengthAdjust="spacing" textLength="178" x="479" y="500.356">RunsAOTCompiledDartCode</text><line style="stroke:#181818;stroke-width:1.0;" x1="450" x2="492" y1="534.5547" y2="534.5547"/><line style="stroke:#181818;stroke-width:1.0;" x1="492" x2="492" y1="534.5547" y2="547.5547"/><line style="stroke:#181818;stroke-width:1.0;" x1="451" x2="492" y1="547.5547" y2="547.5547"/><polygon fill="#181818" points="461,543.5547,451,547.5547,461,551.5547,457,547.5547" style="stroke:#181818;stroke-width:1.0;"/><text fill="#000000" font-family="sans-serif" font-size="13" font-weight="bold" lengthAdjust="spacing" textLength="18" x="457" y="529.4888">15</text><text fill="#000000" font-family="sans-serif" font-size="13" lengthAdjust="spacing" textLength="131" x="479" y="529.4888">GetRendererConfig()</text><polygon fill="#0000FF" points="1090,572.6875,1100,576.6875,1090,580.6875,1094,576.6875" style="stroke:#0000FF;stroke-width:1.0;"/><line style="stroke:#0000FF;stroke-width:1.0;" x1="450" x2="1096" y1="576.6875" y2="576.6875"/><text fill="#000000" font-family="sans-serif" font-size="13" font-weight="bold" lengthAdjust="spacing" textLength="18" x="457" y="571.6216">16</text><text fill="#000000" font-family="sans-serif" font-size="13" lengthAdjust="spacing" textLength="69" x="479" y="571.6216">run(config)</text><polygon fill="#0000FF" points="873.5,601.8203,863.5,605.8203,873.5,609.8203,869.5,605.8203" style="stroke:#0000FF;stroke-width:1.0;"/><line style="stroke:#0000FF;stroke-width:1.0;" x1="867.5" x2="1101" y1="605.8203" y2="605.8203"/><text fill="#000000" font-family="sans-serif" font-size="13" font-weight="bold" lengthAdjust="spacing" textLength="18" x="879.5" y="600.7544">17</text><text fill="#000000" font-family="sans-serif" font-size="13" lengthAdjust="spacing" textLength="168" x="901.5" y="600.7544">OnBitmapSurfaceUpdated</text><polygon fill="#FF0000" points="1250.5,630.9531,1260.5,634.9531,1250.5,638.9531,1254.5,634.9531" style="stroke:#FF0000;stroke-width:1.0;"/><line style="stroke:#FF0000;stroke-width:1.0;" x1="862.5" x2="1256.5" y1="634.9531" y2="634.9531"/><text fill="#000000" font-family="sans-serif" font-size="13" font-weight="bold" lengthAdjust="spacing" textLength="18" x="869.5" y="629.8872">18</text><text fill="#000000" font-family="sans-serif" font-size="13" lengthAdjust="spacing" textLength="168" x="891.5" y="629.8872">OnBitmapSurfaceUpdated</text><polygon fill="#FFA500" points="1390.5,660.0859,1400.5,664.0859,1390.5,668.0859,1394.5,664.0859" style="stroke:#FFA500;stroke-width:1.0;"/><line style="stroke:#FFA500;stroke-width:1.0;" x1="1262.5" x2="1396.5" y1="664.0859" y2="664.0859"/><text fill="#000000" font-family="sans-serif" font-size="13" font-weight="bold" lengthAdjust="spacing" textLength="18" x="1269.5" y="659.02">19</text><text fill="#000000" font-family="sans-serif" font-size="13" lengthAdjust="spacing" textLength="61" x="1291.5" y="659.02">wrireData</text><line style="stroke:#181818;stroke-width:1.0;" x1="1262.5" x2="1304.5" y1="693.2188" y2="693.2188"/><line style="stroke:#181818;stroke-width:1.0;" x1="1304.5" x2="1304.5" y1="693.2188" y2="706.2188"/><line style="stroke:#181818;stroke-width:1.0;" x1="1263.5" x2="1304.5" y1="706.2188" y2="706.2188"/><polygon fill="#181818" points="1273.5,702.2188,1263.5,706.2188,1273.5,710.2188,1269.5,706.2188" style="stroke:#181818;stroke-width:1.0;"/><text fill="#000000" font-family="sans-serif" font-size="13" font-weight="bold" lengthAdjust="spacing" textLength="18" x="1269.5" y="688.1528">20</text><text fill="#000000" font-family="sans-serif" font-size="13" lengthAdjust="spacing" textLength="79" x="1291.5" y="688.1528">SwapBuffers</text><polygon fill="#FFA500" points="1390.5,731.3516,1400.5,735.3516,1390.5,739.3516,1394.5,735.3516" style="stroke:#FFA500;stroke-width:1.0;"/><line style="stroke:#FFA500;stroke-width:1.0;" x1="1262.5" x2="1396.5" y1="735.3516" y2="735.3516"/><text fill="#000000" font-family="sans-serif" font-size="13" font-weight="bold" lengthAdjust="spacing" textLength="18" x="1269.5" y="730.2856">21</text><text fill="#000000" font-family="sans-serif" font-size="13" lengthAdjust="spacing" textLength="38" x="1291.5" y="730.2856">Vsync</text><polygon fill="#181818" points="130,760.4844,140,764.4844,130,768.4844,134,764.4844" style="stroke:#181818;stroke-width:1.0;"/><line style="stroke:#181818;stroke-width:1.0;" x1="28" x2="136" y1="764.4844" y2="764.4844"/><text fill="#000000" font-family="sans-serif" font-size="13" font-weight="bold" lengthAdjust="spacing" textLength="18" x="35" y="759.4185">22</text><text fill="#000000" font-family="sans-serif" font-size="13" lengthAdjust="spacing" textLength="24" x="57" y="759.4185">Run</text><polygon fill="#181818" points="850.5,789.6172,860.5,793.6172,850.5,797.6172,854.5,793.6172" style="stroke:#181818;stroke-width:1.0;"/><line style="stroke:#181818;stroke-width:1.0;" x1="142" x2="856.5" y1="793.6172" y2="793.6172"/><text fill="#000000" font-family="sans-serif" font-size="13" font-weight="bold" lengthAdjust="spacing" textLength="18" x="149" y="788.5513">23</text><text fill="#000000" font-family="sans-serif" font-size="13" lengthAdjust="spacing" textLength="92" x="171" y="788.5513">DispatchEvent</text><polygon fill="#FFA500" points="1463,818.75,1473,822.75,1463,826.75,1467,822.75" style="stroke:#FFA500;stroke-width:1.0;"/><line style="stroke:#FFA500;stroke-width:1.0;" x1="862.5" x2="1469" y1="822.75" y2="822.75"/><text fill="#000000" font-family="sans-serif" font-size="13" font-weight="bold" lengthAdjust="spacing" textLength="18" x="869.5" y="817.6841">24</text><text fill="#000000" font-family="sans-serif" font-size="13" lengthAdjust="spacing" textLength="86" x="891.5" y="817.6841">sd_event_run</text><polygon fill="#181818" points="1555.5,847.8828,1565.5,851.8828,1555.5,855.8828,1559.5,851.8828" style="stroke:#181818;stroke-width:1.0;"/><line style="stroke:#181818;stroke-width:1.0;" x1="142" x2="1561.5" y1="851.8828" y2="851.8828"/><text fill="#000000" font-family="sans-serif" font-size="13" font-weight="bold" lengthAdjust="spacing" textLength="18" x="149" y="846.8169">25</text><text fill="#000000" font-family="sans-serif" font-size="13" lengthAdjust="spacing" textLength="114" x="171" y="846.8169">ProcessMessages</text><line style="stroke:#181818;stroke-width:1.0;" x1="142" x2="184" y1="881.0156" y2="881.0156"/><line style="stroke:#181818;stroke-width:1.0;" x1="184" x2="184" y1="881.0156" y2="894.0156"/><line style="stroke:#181818;stroke-width:1.0;" x1="143" x2="184" y1="894.0156" y2="894.0156"/><polygon fill="#181818" points="153,890.0156,143,894.0156,153,898.0156,149,894.0156" style="stroke:#181818;stroke-width:1.0;"/><text fill="#000000" font-family="sans-serif" font-size="13" font-weight="bold" lengthAdjust="spacing" textLength="18" x="149" y="875.9497">26</text><text fill="#000000" font-family="sans-serif" font-size="13" lengthAdjust="spacing" textLength="27" x="171" y="875.9497">loop</text><polygon fill="#181818" points="130,919.1484,140,923.1484,130,927.1484,134,923.1484" style="stroke:#181818;stroke-width:1.0;"/><line style="stroke:#181818;stroke-width:1.0;" x1="28" x2="136" y1="923.1484" y2="923.1484"/><text fill="#000000" font-family="sans-serif" font-size="13" font-weight="bold" lengthAdjust="spacing" textLength="18" x="35" y="918.0825">27</text><text fill="#000000" font-family="sans-serif" font-size="13" lengthAdjust="spacing" textLength="68" x="57" y="918.0825">OnDestroy</text><!--SRC=[fLMnRjim4Dtv5GIyf8E7h1e4nBQS5aZg8cdZ0cqGqD9P9aeT2V8Orv_GgNi_8dl_f_cFqfOTMuveECb0GUJTktValIE59us-ce1bZ5qAYRoRyg7oH6374WizvmaVOT-2860DGpTTJsyapFiQoMgbm2QvHaVMvoGrCjRgymJDBYJwdncM4Y5Phmt0_I1jbeZlkCMiKs124Nzy-FtuyEVVtr-i9KuthVFhXQ_4yht0OfaM_oX8taDj6zZgV5Az0PsLAcmIn8jYr3wrxUlfwMkXOx5GOPr16Cm8IpANHY0rd8PMLD3pqobOth5Gj99zMrfkqmWkuSrIxb9ToCa7D9vuHrk19R18Z41HEzoc6qZ2bTQ6A-a8a6rMTnnZwS0z84M9MYNbmXbbArZpe8BWYmBicP6yesGveudo43cYfIaajONiHcNjHMpBvShZMD8i2u9U62sNw6C90zITZJxtTMMaWc8GjjBN1HpFVGvq5P866_f8urIM9- -EPxSUJ_8LAe1s35ldIC56s9DK2NFjxLJayCKKeOFtDBlRLyyqUq1LA-56m57YFGc7qCF9au8ZmHeANY4IFhVIma2GY8AYgLtFXQb_tKiORzm2ymDNT538_kqSgyf0EYCedsK7ssc_RobnnTsg0-_iSwwDb6grVR8w1-Skmn0bk8XpFQrlWqDlJtWFmXEm-0y0]--></g></svg>