<?xml version="1.0" encoding="UTF-8" standalone="no"?><svg xmlns="http://www.w3.org/2000/svg" xmlns:xlink="http://www.w3.org/1999/xlink" contentScriptType="application/ecmascript" contentStyleType="text/css" height="1454px" preserveAspectRatio="none" style="width:837px;height:1454px;" version="1.1" viewBox="0 0 837 1454" width="837px" zoomAndPan="magnify"><defs><filter height="300%" id="fxlw52zevzfgt" width="300%" x="-1" y="-1"><feGaussianBlur result="blurOut" stdDeviation="2.0"/><feColorMatrix in="blurOut" result="blurOut2" type="matrix" values="0 0 0 0 0 0 0 0 0 0 0 0 0 0 0 0 0 0 .4 0"/><feOffset dx="4.0" dy="4.0" in="blurOut2" result="blurOut3"/><feBlend in="SourceGraphic" in2="blurOut3" mode="normal"/></filter></defs><g><rect fill="#FEFECE" filter="url(#fxlw52zevzfgt)" height="36.2969" rx="12.5" ry="12.5" style="stroke: #A80036; stroke-width: 1.5;" width="69" x="10" y="709.6367"/><text fill="#000000" font-family="sans-serif" font-size="14" lengthAdjust="spacingAndGlyphs" textLength="49" x="20" y="732.6318">Flutter</text><rect fill="#FEFECE" filter="url(#fxlw52zevzfgt)" height="36.2969" rx="12.5" ry="12.5" style="stroke: #A80036; stroke-width: 1.5;" width="91" x="129" y="202.9648"/><text fill="#000000" font-family="sans-serif" font-size="14" lengthAdjust="spacingAndGlyphs" textLength="71" x="139" y="225.96">Container</text><rect fill="#FEFECE" filter="url(#fxlw52zevzfgt)" height="36.2969" rx="12.5" ry="12.5" style="stroke: #A80036; stroke-width: 1.5;" width="77" x="270" y="48.1484"/><text fill="#000000" font-family="sans-serif" font-size="14" lengthAdjust="spacingAndGlyphs" textLength="57" x="280" y="71.1436">runtime</text><rect fill="#FEFECE" filter="url(#fxlw52zevzfgt)" height="36.2969" rx="12.5" ry="12.5" style="stroke: #A80036; stroke-width: 1.5;" width="62" x="397" y="48.1484"/><text fill="#000000" font-family="sans-serif" font-size="14" lengthAdjust="spacingAndGlyphs" textLength="42" x="407" y="71.1436">Boost</text><rect fill="#FEFECE" filter="url(#fxlw52zevzfgt)" height="36.2969" rx="12.5" ry="12.5" style="stroke: #A80036; stroke-width: 1.5;" width="100" x="509" y="20"/><text fill="#000000" font-family="sans-serif" font-size="14" lengthAdjust="spacingAndGlyphs" textLength="80" x="519" y="42.9951">engine one</text><path d="M459,66.2969 L469,66.2969 C484,66.2969 484,38.1484 499,38.1484 L509,38.1484 " fill="none" style="stroke: #A80036; stroke-width: 1.0;"/><rect fill="#FEFECE" filter="url(#fxlw52zevzfgt)" height="36.2969" rx="12.5" ry="12.5" style="stroke: #A80036; stroke-width: 1.5;" width="65" x="509" y="76.2969"/><text fill="#000000" font-family="sans-serif" font-size="14" lengthAdjust="spacingAndGlyphs" textLength="45" x="519" y="99.292">router</text><path d="M459,66.2969 L469,66.2969 C484,66.2969 484,94.4453 499,94.4453 L509,94.4453 " fill="none" style="stroke: #A80036; stroke-width: 1.0;"/><path d="M347,66.2969 L357,66.2969 C372,66.2969 372,66.2969 387,66.2969 L397,66.2969 " fill="none" style="stroke: #A80036; stroke-width: 1.0;"/><path d="M220,221.1133 L230,221.1133 C245,221.1133 245,66.2969 260,66.2969 L270,66.2969 " fill="none" style="stroke: #A80036; stroke-width: 1.0;"/><rect fill="#FEFECE" filter="url(#fxlw52zevzfgt)" height="36.2969" rx="12.5" ry="12.5" style="stroke: #A80036; stroke-width: 1.5;" width="63" x="270" y="174.8164"/><text fill="#000000" font-family="sans-serif" font-size="14" lengthAdjust="spacingAndGlyphs" textLength="43" x="280" y="197.8115">Plugin</text><rect fill="#FEFECE" filter="url(#fxlw52zevzfgt)" height="36.2969" rx="12.5" ry="12.5" style="stroke: #A80036; stroke-width: 1.5;" width="44" x="383" y="132.5938"/><text fill="#000000" font-family="sans-serif" font-size="14" lengthAdjust="spacingAndGlyphs" textLength="24" x="393" y="155.5889">Api</text><path d="M333,192.9648 L343,192.9648 C358,192.9648 358,150.7422 373,150.7422 L383,150.7422 " fill="none" style="stroke: #A80036; stroke-width: 1.0;"/><rect fill="#FEFECE" filter="url(#fxlw52zevzfgt)" height="36.2969" rx="12.5" ry="12.5" style="stroke: #A80036; stroke-width: 1.5;" width="117" x="383" y="188.8906"/><text fill="#000000" font-family="sans-serif" font-size="14" lengthAdjust="spacingAndGlyphs" textLength="97" x="393" y="211.8857">nativeWidget</text><rect fill="#FEFECE" filter="url(#fxlw52zevzfgt)" height="36.2969" rx="12.5" ry="12.5" style="stroke: #A80036; stroke-width: 1.5;" width="76" x="550" y="160.7422"/><text fill="#000000" font-family="sans-serif" font-size="14" lengthAdjust="spacingAndGlyphs" textLength="56" x="560" y="183.7373">共享纹理</text><rect fill="#FEFECE" filter="url(#fxlw52zevzfgt)" height="36.2969" rx="12.5" ry="12.5" style="stroke: #A80036; stroke-width: 1.5;" width="76" x="676" y="160.7422"/><text fill="#000000" font-family="sans-serif" font-size="14" lengthAdjust="spacingAndGlyphs" textLength="56" x="686" y="183.7373">视频组件</text><path d="M626,178.8906 L636,178.8906 C651,178.8906 651,178.8906 666,178.8906 L676,178.8906 " fill="none" style="stroke: #A80036; stroke-width: 1.0;"/><path d="M500,207.0391 L510,207.0391 C525,207.0391 525,178.8906 540,178.8906 L550,178.8906 " fill="none" style="stroke: #A80036; stroke-width: 1.0;"/><rect fill="#FEFECE" filter="url(#fxlw52zevzfgt)" height="36.2969" rx="12.5" ry="12.5" style="stroke: #A80036; stroke-width: 1.5;" width="97" x="550" y="217.0391"/><text fill="#000000" font-family="sans-serif" font-size="14" lengthAdjust="spacingAndGlyphs" textLength="77" x="560" y="240.0342">engine魔改</text><rect fill="#FEFECE" filter="url(#fxlw52zevzfgt)" height="36.2969" rx="12.5" ry="12.5" style="stroke: #A80036; stroke-width: 1.5;" width="121" x="697" y="217.0391"/><text fill="#000000" font-family="sans-serif" font-size="14" lengthAdjust="spacingAndGlyphs" textLength="101" x="707" y="240.0342">native图片方案</text><path d="M647,235.1875 L657,235.1875 C672,235.1875 672,235.1875 687,235.1875 L697,235.1875 " fill="none" style="stroke: #A80036; stroke-width: 1.0;"/><path d="M500,207.0391 L510,207.0391 C525,207.0391 525,235.1875 540,235.1875 L550,235.1875 " fill="none" style="stroke: #A80036; stroke-width: 1.0;"/><path d="M333,192.9648 L343,192.9648 C358,192.9648 358,207.0391 373,207.0391 L383,207.0391 " fill="none" style="stroke: #A80036; stroke-width: 1.0;"/><path d="M220,221.1133 L230,221.1133 C245,221.1133 245,192.9648 260,192.9648 L270,192.9648 " fill="none" style="stroke: #A80036; stroke-width: 1.0;"/><rect fill="#FEFECE" filter="url(#fxlw52zevzfgt)" height="36.2969" rx="12.5" ry="12.5" style="stroke: #A80036; stroke-width: 1.5;" width="48" x="270" y="329.6328"/><text fill="#000000" font-family="sans-serif" font-size="14" lengthAdjust="spacingAndGlyphs" textLength="28" x="280" y="352.6279">Dev</text><rect fill="#FEFECE" filter="url(#fxlw52zevzfgt)" height="36.2969" rx="12.5" ry="12.5" style="stroke: #A80036; stroke-width: 1.5;" width="55" x="368" y="301.4844"/><text fill="#000000" font-family="sans-serif" font-size="14" lengthAdjust="spacingAndGlyphs" textLength="35" x="378" y="324.4795">build</text><rect fill="#FEFECE" filter="url(#fxlw52zevzfgt)" height="36.2969" rx="12.5" ry="12.5" style="stroke: #A80036; stroke-width: 1.5;" width="72" x="473" y="273.3359"/><text fill="#000000" font-family="sans-serif" font-size="14" lengthAdjust="spacingAndGlyphs" textLength="52" x="483" y="296.3311">publish</text><path d="M423,319.6328 L433,319.6328 C448,319.6328 448,291.4844 463,291.4844 L473,291.4844 " fill="none" style="stroke: #A80036; stroke-width: 1.0;"/><rect fill="#FEFECE" filter="url(#fxlw52zevzfgt)" height="36.2969" rx="12.5" ry="12.5" style="stroke: #A80036; stroke-width: 1.5;" width="126" x="473" y="329.6328"/><text fill="#000000" font-family="sans-serif" font-size="14" lengthAdjust="spacingAndGlyphs" textLength="106" x="483" y="352.6279">versionControl</text><path d="M423,319.6328 L433,319.6328 C448,319.6328 448,347.7813 463,347.7813 L473,347.7813 " fill="none" style="stroke: #A80036; stroke-width: 1.0;"/><path d="M318,347.7813 L328,347.7813 C343,347.7813 343,319.6328 358,319.6328 L368,319.6328 " fill="none" style="stroke: #A80036; stroke-width: 1.0;"/><rect fill="#FEFECE" filter="url(#fxlw52zevzfgt)" height="36.2969" rx="12.5" ry="12.5" style="stroke: #A80036; stroke-width: 1.5;" width="65" x="368" y="385.9297"/><text fill="#000000" font-family="sans-serif" font-size="14" lengthAdjust="spacingAndGlyphs" textLength="45" x="378" y="408.9248">debug</text><rect fill="#FEFECE" filter="url(#fxlw52zevzfgt)" height="36.2969" rx="12.5" ry="12.5" style="stroke: #A80036; stroke-width: 1.5;" width="102" x="483" y="385.9297"/><text fill="#000000" font-family="sans-serif" font-size="14" lengthAdjust="spacingAndGlyphs" textLength="82" x="493" y="408.9248">dart simple</text><path d="M433,404.0781 L443,404.0781 C458,404.0781 458,404.0781 473,404.0781 L483,404.0781 " fill="none" style="stroke: #A80036; stroke-width: 1.0;"/><path d="M318,347.7813 L328,347.7813 C343,347.7813 343,404.0781 358,404.0781 L368,404.0781 " fill="none" style="stroke: #A80036; stroke-width: 1.0;"/><path d="M220,221.1133 L230,221.1133 C245,221.1133 245,347.7813 260,347.7813 L270,347.7813 " fill="none" style="stroke: #A80036; stroke-width: 1.0;"/><path d="M79,727.7852 L89,727.7852 C104,727.7852 104,221.1133 119,221.1133 L129,221.1133 " fill="none" style="stroke: #A80036; stroke-width: 1.0;"/><rect fill="#FEFECE" filter="url(#fxlw52zevzfgt)" height="36.2969" rx="12.5" ry="12.5" style="stroke: #A80036; stroke-width: 1.5;" width="69" x="129" y="780.0078"/><text fill="#000000" font-family="sans-serif" font-size="14" lengthAdjust="spacingAndGlyphs" textLength="49" x="139" y="803.0029">Engine</text><rect fill="#FEFECE" filter="url(#fxlw52zevzfgt)" height="36.2969" rx="12.5" ry="12.5" style="stroke: #A80036; stroke-width: 1.5;" width="113" x="248" y="582.9688"/><text fill="#000000" font-family="sans-serif" font-size="14" lengthAdjust="spacingAndGlyphs" textLength="93" x="258" y="605.9639">Performance</text><rect fill="#FEFECE" filter="url(#fxlw52zevzfgt)" height="36.2969" rx="12.5" ry="12.5" style="stroke: #A80036; stroke-width: 1.5;" width="74" x="411" y="442.2266"/><text fill="#000000" font-family="sans-serif" font-size="14" lengthAdjust="spacingAndGlyphs" textLength="54" x="421" y="465.2217">startUp</text><path d="M361,601.1172 L371,601.1172 C386,601.1172 386,460.375 401,460.375 L411,460.375 " fill="none" style="stroke: #A80036; stroke-width: 1.0;"/><rect fill="#FEFECE" filter="url(#fxlw52zevzfgt)" height="36.2969" rx="12.5" ry="12.5" style="stroke: #A80036; stroke-width: 1.5;" width="81" x="411" y="498.5234"/><text fill="#000000" font-family="sans-serif" font-size="14" lengthAdjust="spacingAndGlyphs" textLength="61" x="421" y="521.5186">imgLoad</text><path d="M361,601.1172 L371,601.1172 C386,601.1172 386,516.6719 401,516.6719 L411,516.6719 " fill="none" style="stroke: #A80036; stroke-width: 1.0;"/><rect fill="#FEFECE" filter="url(#fxlw52zevzfgt)" height="36.2969" rx="12.5" ry="12.5" style="stroke: #A80036; stroke-width: 1.5;" width="48" x="411" y="639.2656"/><text fill="#000000" font-family="sans-serif" font-size="14" lengthAdjust="spacingAndGlyphs" textLength="28" x="421" y="662.2607">size</text><rect fill="#FEFECE" filter="url(#fxlw52zevzfgt)" height="36.2969" rx="12.5" ry="12.5" style="stroke: #A80036; stroke-width: 1.5;" width="48" x="509" y="554.8203"/><text fill="#000000" font-family="sans-serif" font-size="14" lengthAdjust="spacingAndGlyphs" textLength="28" x="519" y="577.8154">skia</text><path d="M459,657.4141 L469,657.4141 C484,657.4141 484,572.9688 499,572.9688 L509,572.9688 " fill="none" style="stroke: #A80036; stroke-width: 1.0;"/><rect fill="#FEFECE" filter="url(#fxlw52zevzfgt)" height="36.2969" rx="12.5" ry="12.5" style="stroke: #A80036; stroke-width: 1.5;" width="40" x="509" y="611.1172"/><text fill="#000000" font-family="sans-serif" font-size="14" lengthAdjust="spacingAndGlyphs" textLength="20" x="519" y="634.1123">icu</text><path d="M459,657.4141 L469,657.4141 C484,657.4141 484,629.2656 499,629.2656 L509,629.2656 " fill="none" style="stroke: #A80036; stroke-width: 1.0;"/><rect fill="#FEFECE" filter="url(#fxlw52zevzfgt)" height="36.2969" rx="12.5" ry="12.5" style="stroke: #A80036; stroke-width: 1.5;" width="114" x="509" y="667.4141"/><text fill="#000000" font-family="sans-serif" font-size="14" lengthAdjust="spacingAndGlyphs" textLength="94" x="519" y="690.4092">dynamic load</text><path d="M459,657.4141 L469,657.4141 C484,657.4141 484,685.5625 499,685.5625 L509,685.5625 " fill="none" style="stroke: #A80036; stroke-width: 1.0;"/><rect fill="#FEFECE" filter="url(#fxlw52zevzfgt)" height="36.2969" rx="12.5" ry="12.5" style="stroke: #A80036; stroke-width: 1.5;" width="80" x="509" y="723.7109"/><text fill="#000000" font-family="sans-serif" font-size="14" lengthAdjust="spacingAndGlyphs" textLength="60" x="519" y="746.7061">network</text><path d="M459,657.4141 L469,657.4141 C484,657.4141 484,741.8594 499,741.8594 L509,741.8594 " fill="none" style="stroke: #A80036; stroke-width: 1.0;"/><path d="M361,601.1172 L371,601.1172 C386,601.1172 386,657.4141 401,657.4141 L411,657.4141 " fill="none" style="stroke: #A80036; stroke-width: 1.0;"/><path d="M198,798.1563 L208,798.1563 C223,798.1563 223,601.1172 238,601.1172 L248,601.1172 " fill="none" style="stroke: #A80036; stroke-width: 1.0;"/><rect fill="#FEFECE" filter="url(#fxlw52zevzfgt)" height="36.2969" rx="12.5" ry="12.5" style="stroke: #A80036; stroke-width: 1.5;" width="47" x="248" y="780.0078"/><text fill="#000000" font-family="sans-serif" font-size="14" lengthAdjust="spacingAndGlyphs" textLength="27" x="258" y="803.0029">Bug</text><rect fill="#FEFECE" filter="url(#fxlw52zevzfgt)" height="36.2969" rx="12.5" ry="12.5" style="stroke: #A80036; stroke-width: 1.5;" width="77" x="345" y="780.0078"/><text fill="#000000" font-family="sans-serif" font-size="14" lengthAdjust="spacingAndGlyphs" textLength="57" x="355" y="803.0029">adapter</text><rect fill="#FEFECE" filter="url(#fxlw52zevzfgt)" height="36.2969" rx="12.5" ry="12.5" style="stroke: #A80036; stroke-width: 1.5;" width="144" x="472" y="780.0078"/><text fill="#000000" font-family="sans-serif" font-size="14" lengthAdjust="spacingAndGlyphs" textLength="124" x="482" y="803.0029">androidx/support</text><path d="M422,798.1563 L432,798.1563 C447,798.1563 447,798.1563 462,798.1563 L472,798.1563 " fill="none" style="stroke: #A80036; stroke-width: 1.0;"/><path d="M295,798.1563 L305,798.1563 C320,798.1563 320,798.1563 335,798.1563 L345,798.1563 " fill="none" style="stroke: #A80036; stroke-width: 1.0;"/><path d="M198,798.1563 L208,798.1563 C223,798.1563 223,798.1563 238,798.1563 L248,798.1563 " fill="none" style="stroke: #A80036; stroke-width: 1.0;"/><rect fill="#FEFECE" filter="url(#fxlw52zevzfgt)" height="36.2969" rx="12.5" ry="12.5" style="stroke: #A80036; stroke-width: 1.5;" width="67" x="248" y="977.0469"/><text fill="#000000" font-family="sans-serif" font-size="14" lengthAdjust="spacingAndGlyphs" textLength="47" x="258" y="1000.042">source</text><rect fill="#FEFECE" filter="url(#fxlw52zevzfgt)" height="36.2969" rx="12.5" ry="12.5" style="stroke: #A80036; stroke-width: 1.5;" width="68" x="365" y="977.0469"/><text fill="#000000" font-family="sans-serif" font-size="14" lengthAdjust="spacingAndGlyphs" textLength="48" x="375" y="1000.042">render</text><rect fill="#FEFECE" filter="url(#fxlw52zevzfgt)" height="36.2969" rx="12.5" ry="12.5" style="stroke: #A80036; stroke-width: 1.5;" width="51" x="483" y="892.6016"/><text fill="#000000" font-family="sans-serif" font-size="14" lengthAdjust="spacingAndGlyphs" textLength="31" x="493" y="915.5967">tree</text><rect fill="#FEFECE" filter="url(#fxlw52zevzfgt)" height="36.2969" rx="12.5" ry="12.5" style="stroke: #A80036; stroke-width: 1.5;" width="69" x="584" y="836.3047"/><text fill="#000000" font-family="sans-serif" font-size="14" lengthAdjust="spacingAndGlyphs" textLength="49" x="594" y="859.2998">widget</text><path d="M534,910.75 L544,910.75 C559,910.75 559,854.4531 574,854.4531 L584,854.4531 " fill="none" style="stroke: #A80036; stroke-width: 1.0;"/><rect fill="#FEFECE" filter="url(#fxlw52zevzfgt)" height="36.2969" rx="12.5" ry="12.5" style="stroke: #A80036; stroke-width: 1.5;" width="81" x="584" y="892.6016"/><text fill="#000000" font-family="sans-serif" font-size="14" lengthAdjust="spacingAndGlyphs" textLength="61" x="594" y="915.5967">element</text><path d="M534,910.75 L544,910.75 C559,910.75 559,910.75 574,910.75 L584,910.75 " fill="none" style="stroke: #A80036; stroke-width: 1.0;"/><rect fill="#FEFECE" filter="url(#fxlw52zevzfgt)" height="36.2969" rx="12.5" ry="12.5" style="stroke: #A80036; stroke-width: 1.5;" width="68" x="584" y="948.8984"/><text fill="#000000" font-family="sans-serif" font-size="14" lengthAdjust="spacingAndGlyphs" textLength="48" x="594" y="971.8936">render</text><path d="M534,910.75 L544,910.75 C559,910.75 559,967.0469 574,967.0469 L584,967.0469 " fill="none" style="stroke: #A80036; stroke-width: 1.0;"/><path d="M433,995.1953 L443,995.1953 C458,995.1953 458,910.75 473,910.75 L483,910.75 " fill="none" style="stroke: #A80036; stroke-width: 1.0;"/><rect fill="#FEFECE" filter="url(#fxlw52zevzfgt)" height="36.2969" rx="12.5" ry="12.5" style="stroke: #A80036; stroke-width: 1.5;" width="87" x="483" y="1061.4922"/><text fill="#000000" font-family="sans-serif" font-size="14" lengthAdjust="spacingAndGlyphs" textLength="67" x="493" y="1084.4873">pipleLine</text><rect fill="#FEFECE" filter="url(#fxlw52zevzfgt)" height="36.2969" rx="12.5" ry="12.5" style="stroke: #A80036; stroke-width: 1.5;" width="32" x="620" y="1005.1953"/><text fill="#000000" font-family="sans-serif" font-size="14" lengthAdjust="spacingAndGlyphs" textLength="12" x="630" y="1028.1904">ui</text><path d="M570,1079.6406 L580,1079.6406 C595,1079.6406 595,1023.3438 610,1023.3438 L620,1023.3438 " fill="none" style="stroke: #A80036; stroke-width: 1.0;"/><rect fill="#FEFECE" filter="url(#fxlw52zevzfgt)" height="36.2969" rx="12.5" ry="12.5" style="stroke: #A80036; stroke-width: 1.5;" width="47" x="620" y="1061.4922"/><text fill="#000000" font-family="sans-serif" font-size="14" lengthAdjust="spacingAndGlyphs" textLength="27" x="630" y="1084.4873">gpu</text><path d="M570,1079.6406 L580,1079.6406 C595,1079.6406 595,1079.6406 610,1079.6406 L620,1079.6406 " fill="none" style="stroke: #A80036; stroke-width: 1.0;"/><rect fill="#FEFECE" filter="url(#fxlw52zevzfgt)" height="36.2969" rx="12.5" ry="12.5" style="stroke: #A80036; stroke-width: 1.5;" width="48" x="620" y="1117.7891"/><text fill="#000000" font-family="sans-serif" font-size="14" lengthAdjust="spacingAndGlyphs" textLength="28" x="630" y="1140.7842">skia</text><path d="M570,1079.6406 L580,1079.6406 C595,1079.6406 595,1135.9375 610,1135.9375 L620,1135.9375 " fill="none" style="stroke: #A80036; stroke-width: 1.0;"/><path d="M433,995.1953 L443,995.1953 C458,995.1953 458,1079.6406 473,1079.6406 L483,1079.6406 " fill="none" style="stroke: #A80036; stroke-width: 1.0;"/><path d="M315,995.1953 L325,995.1953 C340,995.1953 340,995.1953 355,995.1953 L365,995.1953 " fill="none" style="stroke: #A80036; stroke-width: 1.0;"/><rect fill="#FEFECE" filter="url(#fxlw52zevzfgt)" height="36.2969" rx="12.5" ry="12.5" style="stroke: #A80036; stroke-width: 1.5;" width="62" x="365" y="1033.3438"/><text fill="#000000" font-family="sans-serif" font-size="14" lengthAdjust="spacingAndGlyphs" textLength="42" x="375" y="1056.3389">event</text><path d="M315,995.1953 L325,995.1953 C340,995.1953 340,1051.4922 355,1051.4922 L365,1051.4922 " fill="none" style="stroke: #A80036; stroke-width: 1.0;"/><path d="M198,798.1563 L208,798.1563 C223,798.1563 223,995.1953 238,995.1953 L248,995.1953 " fill="none" style="stroke: #A80036; stroke-width: 1.0;"/><path d="M79,727.7852 L89,727.7852 C104,727.7852 104,798.1563 119,798.1563 L129,798.1563 " fill="none" style="stroke: #A80036; stroke-width: 1.0;"/><rect fill="#FEFECE" filter="url(#fxlw52zevzfgt)" height="36.2969" rx="12.5" ry="12.5" style="stroke: #A80036; stroke-width: 1.5;" width="74" x="129" y="1230.3828"/><text fill="#000000" font-family="sans-serif" font-size="14" lengthAdjust="spacingAndGlyphs" textLength="54" x="139" y="1253.3779">DartVM</text><rect fill="#FEFECE" filter="url(#fxlw52zevzfgt)" height="36.2969" rx="12.5" ry="12.5" style="stroke: #A80036; stroke-width: 1.5;" width="57" x="253" y="1230.3828"/><text fill="#000000" font-family="sans-serif" font-size="14" lengthAdjust="spacingAndGlyphs" textLength="37" x="263" y="1253.3779">mem</text><rect fill="#FEFECE" filter="url(#fxlw52zevzfgt)" height="36.2969" rx="12.5" ry="12.5" style="stroke: #A80036; stroke-width: 1.5;" width="41" x="360" y="1230.3828"/><text fill="#000000" font-family="sans-serif" font-size="14" lengthAdjust="spacingAndGlyphs" textLength="21" x="370" y="1253.3779">GC</text><rect fill="#FEFECE" filter="url(#fxlw52zevzfgt)" height="36.2969" rx="12.5" ry="12.5" style="stroke: #A80036; stroke-width: 1.5;" width="67" x="451" y="1202.2344"/><text fill="#000000" font-family="sans-serif" font-size="14" lengthAdjust="spacingAndGlyphs" textLength="43" x="461" y="1225.2295">young</text><rect fill="#FEFECE" filter="url(#fxlw52zevzfgt)" height="36.2969" rx="12.5" ry="12.5" style="stroke: #A80036; stroke-width: 1.5;" width="145" x="568" y="1174.0859"/><text fill="#000000" font-family="sans-serif" font-size="14" lengthAdjust="spacingAndGlyphs" textLength="125" x="578" y="1197.0811">划分1:1  JVM 1:1:8</text><path d="M518,1220.3828 L528,1220.3828 C543,1220.3828 543,1192.2344 558,1192.2344 L568,1192.2344 " fill="none" style="stroke: #A80036; stroke-width: 1.0;"/><rect fill="#FEFECE" filter="url(#fxlw52zevzfgt)" height="36.2969" rx="12.5" ry="12.5" style="stroke: #A80036; stroke-width: 1.5;" width="219" x="568" y="1230.3828"/><text fill="#000000" font-family="sans-serif" font-size="14" lengthAdjust="spacingAndGlyphs" textLength="199" x="578" y="1253.3779">算法 mark-compact 滑动指针</text><path d="M518,1220.3828 L528,1220.3828 C543,1220.3828 543,1248.5313 558,1248.5313 L568,1248.5313 " fill="none" style="stroke: #A80036; stroke-width: 1.0;"/><path d="M401,1248.5313 L411,1248.5313 C426,1248.5313 426,1220.3828 441,1220.3828 L451,1220.3828 " fill="none" style="stroke: #A80036; stroke-width: 1.0;"/><rect fill="#FEFECE" filter="url(#fxlw52zevzfgt)" height="36.2969" rx="12.5" ry="12.5" style="stroke: #A80036; stroke-width: 1.5;" width="46" x="451" y="1286.6797"/><text fill="#000000" font-family="sans-serif" font-size="14" lengthAdjust="spacingAndGlyphs" textLength="22" x="461" y="1309.6748">old</text><rect fill="#FEFECE" filter="url(#fxlw52zevzfgt)" height="36.2969" rx="12.5" ry="12.5" style="stroke: #A80036; stroke-width: 1.5;" width="84" x="547" y="1286.6797"/><text fill="#000000" font-family="sans-serif" font-size="14" lengthAdjust="spacingAndGlyphs" textLength="64" x="557" y="1309.6748">compact</text><path d="M497,1304.8281 L507,1304.8281 C522,1304.8281 522,1304.8281 537,1304.8281 L547,1304.8281 " fill="none" style="stroke: #A80036; stroke-width: 1.0;"/><path d="M401,1248.5313 L411,1248.5313 C426,1248.5313 426,1304.8281 441,1304.8281 L451,1304.8281 " fill="none" style="stroke: #A80036; stroke-width: 1.0;"/><path d="M310,1248.5313 L320,1248.5313 C335,1248.5313 335,1248.5313 350,1248.5313 L360,1248.5313 " fill="none" style="stroke: #A80036; stroke-width: 1.0;"/><path d="M203,1248.5313 L213,1248.5313 C228,1248.5313 228,1248.5313 243,1248.5313 L253,1248.5313 " fill="none" style="stroke: #A80036; stroke-width: 1.0;"/><path d="M79,727.7852 L89,727.7852 C104,727.7852 104,1248.5313 119,1248.5313 L129,1248.5313 " fill="none" style="stroke: #A80036; stroke-width: 1.0;"/><rect fill="#FEFECE" filter="url(#fxlw52zevzfgt)" height="36.2969" rx="12.5" ry="12.5" style="stroke: #A80036; stroke-width: 1.5;" width="56" x="129" y="1371.125"/><text fill="#000000" font-family="sans-serif" font-size="14" lengthAdjust="spacingAndGlyphs" textLength="36" x="139" y="1394.1201">tools</text><rect fill="#FEFECE" filter="url(#fxlw52zevzfgt)" height="36.2969" rx="12.5" ry="12.5" style="stroke: #A80036; stroke-width: 1.5;" width="114" x="235" y="1342.9766"/><text fill="#000000" font-family="sans-serif" font-size="14" lengthAdjust="spacingAndGlyphs" textLength="94" x="245" y="1365.9717">buildComand</text><path d="M185,1389.2734 L195,1389.2734 C210,1389.2734 210,1361.125 225,1361.125 L235,1361.125 " fill="none" style="stroke: #A80036; stroke-width: 1.0;"/><rect fill="#FEFECE" filter="url(#fxlw52zevzfgt)" height="36.2969" rx="12.5" ry="12.5" style="stroke: #A80036; stroke-width: 1.5;" width="88" x="235" y="1399.2734"/><text fill="#000000" font-family="sans-serif" font-size="14" lengthAdjust="spacingAndGlyphs" textLength="68" x="245" y="1422.2686">template</text><path d="M185,1389.2734 L195,1389.2734 C210,1389.2734 210,1417.4219 225,1417.4219 L235,1417.4219 " fill="none" style="stroke: #A80036; stroke-width: 1.0;"/><path d="M79,727.7852 L89,727.7852 C104,727.7852 104,1389.2734 119,1389.2734 L129,1389.2734 " fill="none" style="stroke: #A80036; stroke-width: 1.0;"/><!--MD5=[7484435056af327aa752657157c8d93d]
@startmindmap

+ Flutter
++ Container
+++ runtime
++++ Boost
+++++ engine one
+++++ router
+++ Plugin
++++ Api
++++ nativeWidget
+++++ 共享纹理
++++++ 视频组件
+++++ engine魔改
++++++ native图片方案
+++ Dev
++++ build
+++++ publish
+++++ versionControl
++++ debug
+++++ dart simple
++ Engine
+++ Performance
++++ startUp
++++ imgLoad
++++ size
+++++ skia
+++++ icu
+++++ dynamic load
+++++ network
+++ Bug
++++ adapter
+++++ androidx/support
+++ source
++++ render
+++++ tree
++++++ widget
++++++ element
++++++ render
+++++ pipleLine
++++++ ui
++++++ gpu
++++++ skia
++++ event
++ DartVM
+++ mem
++++ GC
+++++ young 
++++++ 划分1:1  JVM 1:1:8
++++++ 算法 mark-compact 滑动指针
+++++ old 
++++++ compact
++ tools
+++ buildComand
+++ template

@endmindmap

PlantUML version 1.2020.15beta1(Unknown compile time)
(GPL source distribution)
Java Runtime: Java(TM) SE Runtime Environment
JVM: Java HotSpot(TM) 64-Bit Server VM
Default Encoding: UTF-8
Language: en
Country: US
--></g></svg>